%TF.GenerationSoftware,KiCad,Pcbnew,9.0.8*%
%TF.CreationDate,2026-03-26T16:54:31-04:00*%
%TF.ProjectId,BrakeSwitch,4272616b-6553-4776-9974-63682e6b6963,rev?*%
%TF.SameCoordinates,Original*%
%TF.FileFunction,Copper,L1,Top*%
%TF.FilePolarity,Positive*%
%FSLAX46Y46*%
G04 Gerber Fmt 4.6, Leading zero omitted, Abs format (unit mm)*
G04 Created by KiCad (PCBNEW 9.0.8) date 2026-03-26 16:54:31*
%MOMM*%
%LPD*%
G01*
G04 APERTURE LIST*
G04 Aperture macros list*
%AMRoundRect*
0 Rectangle with rounded corners*
0 $1 Rounding radius*
0 $2 $3 $4 $5 $6 $7 $8 $9 X,Y pos of 4 corners*
0 Add a 4 corners polygon primitive as box body*
4,1,4,$2,$3,$4,$5,$6,$7,$8,$9,$2,$3,0*
0 Add four circle primitives for the rounded corners*
1,1,$1+$1,$2,$3*
1,1,$1+$1,$4,$5*
1,1,$1+$1,$6,$7*
1,1,$1+$1,$8,$9*
0 Add four rect primitives between the rounded corners*
20,1,$1+$1,$2,$3,$4,$5,0*
20,1,$1+$1,$4,$5,$6,$7,0*
20,1,$1+$1,$6,$7,$8,$9,0*
20,1,$1+$1,$8,$9,$2,$3,0*%
G04 Aperture macros list end*
%TA.AperFunction,SMDPad,CuDef*%
%ADD10RoundRect,0.250000X-1.950000X-1.000000X1.950000X-1.000000X1.950000X1.000000X-1.950000X1.000000X0*%
%TD*%
%TA.AperFunction,ComponentPad*%
%ADD11C,13.000000*%
%TD*%
%TA.AperFunction,SMDPad,CuDef*%
%ADD12RoundRect,0.250000X-1.000000X1.950000X-1.000000X-1.950000X1.000000X-1.950000X1.000000X1.950000X0*%
%TD*%
%TA.AperFunction,SMDPad,CuDef*%
%ADD13RoundRect,0.300000X0.700000X-1.200000X0.700000X1.200000X-0.700000X1.200000X-0.700000X-1.200000X0*%
%TD*%
%TA.AperFunction,SMDPad,CuDef*%
%ADD14RoundRect,0.250000X1.000000X-1.950000X1.000000X1.950000X-1.000000X1.950000X-1.000000X-1.950000X0*%
%TD*%
%TA.AperFunction,ComponentPad*%
%ADD15R,1.560000X1.560000*%
%TD*%
%TA.AperFunction,ComponentPad*%
%ADD16C,1.560000*%
%TD*%
%TA.AperFunction,SMDPad,CuDef*%
%ADD17R,5.400000X2.900000*%
%TD*%
%TA.AperFunction,ComponentPad*%
%ADD18O,7.000000X3.000000*%
%TD*%
%TA.AperFunction,ViaPad*%
%ADD19C,0.600000*%
%TD*%
%TA.AperFunction,Conductor*%
%ADD20C,1.270000*%
%TD*%
%TA.AperFunction,Conductor*%
%ADD21C,2.540000*%
%TD*%
%TA.AperFunction,Conductor*%
%ADD22C,0.508000*%
%TD*%
%TA.AperFunction,Conductor*%
%ADD23C,0.254000*%
%TD*%
%TA.AperFunction,Conductor*%
%ADD24C,0.177800*%
%TD*%
G04 APERTURE END LIST*
D10*
%TO.P,C3,1*%
%TO.N,5V*%
X66531000Y-44958000D03*
%TO.P,C3,2*%
%TO.N,GND*%
X73931000Y-44958000D03*
%TD*%
D11*
%TO.P,H1,1*%
%TO.N,N/C*%
X92710000Y-50800000D03*
%TD*%
D12*
%TO.P,C4,1*%
%TO.N,12V*%
X59577637Y-53450000D03*
%TO.P,C4,2*%
%TO.N,GND*%
X59577637Y-60850000D03*
%TD*%
D13*
%TO.P,J2,1,Pin_1*%
%TO.N,GND*%
X43578000Y-40640000D03*
%TO.P,J2,2,Pin_2*%
%TO.N,5V*%
X46578000Y-40640000D03*
%TO.P,J2,3,Pin_3*%
%TO.N,RearLoop*%
X49578000Y-40640000D03*
%TO.P,J2,4,Pin_4*%
%TO.N,FrontLoop*%
X52578000Y-40640000D03*
%TD*%
D14*
%TO.P,C1,1*%
%TO.N,12V*%
X59586037Y-48150000D03*
%TO.P,C1,2*%
%TO.N,GND*%
X59586037Y-40750000D03*
%TD*%
D15*
%TO.P,RV1,1,1*%
%TO.N,5V*%
X78653000Y-44323000D03*
D16*
%TO.P,RV1,2,2*%
%TO.N,Net-(U2--)*%
X81153000Y-49323000D03*
%TO.P,RV1,3,3*%
%TO.N,GND*%
X83653000Y-44323000D03*
%TD*%
D17*
%TO.P,L1,1,1*%
%TO.N,Net-(D1-K)*%
X70866000Y-51438000D03*
%TO.P,L1,2,2*%
%TO.N,5V*%
X70866000Y-61338000D03*
%TD*%
D18*
%TO.P,SW1,1,C*%
%TO.N,Net-(Q1-D)*%
X48133000Y-60243000D03*
%TO.P,SW1,2,B*%
%TO.N,Light In*%
X48133000Y-53243000D03*
%TO.P,SW1,3,A*%
%TO.N,SwitchF+*%
X48133000Y-46243000D03*
%TD*%
D15*
%TO.P,RV2,1,1*%
%TO.N,5V*%
X78653000Y-52785000D03*
D16*
%TO.P,RV2,2,2*%
%TO.N,Net-(U3--)*%
X81153000Y-57785000D03*
%TO.P,RV2,3,3*%
%TO.N,GND*%
X83653000Y-52785000D03*
%TD*%
D19*
%TO.N,GND*%
X40805000Y-44450000D03*
X44704000Y-50292000D03*
X54102000Y-49276000D03*
X40805000Y-59182000D03*
X69596000Y-47498000D03*
X56388000Y-40640000D03*
X42164000Y-40386000D03*
X41656000Y-41148000D03*
X67310000Y-42418000D03*
X69088000Y-46736000D03*
X43799078Y-50272277D03*
X56388000Y-39624000D03*
X43688000Y-53340000D03*
X53086000Y-50292000D03*
X54102000Y-50292000D03*
X75184000Y-43180000D03*
X69850000Y-46736000D03*
X60452000Y-57912000D03*
X40805000Y-53340000D03*
X56388000Y-41656000D03*
X40805000Y-62230000D03*
X42164000Y-39370000D03*
X66294000Y-42418000D03*
X53594000Y-49784000D03*
X58420000Y-57912000D03*
X68326000Y-42418000D03*
X43688000Y-62230000D03*
X43688000Y-59182000D03*
X71120000Y-44196000D03*
X59436000Y-57912000D03*
X53086000Y-49276000D03*
X43704952Y-47471030D03*
X43688000Y-44450000D03*
%TO.N,5V*%
X45339000Y-43053000D03*
X63500000Y-43942000D03*
X69215000Y-44069000D03*
X70739000Y-49276000D03*
X44450000Y-43053000D03*
%TO.N,Net-(D1-K)*%
X62865000Y-52578000D03*
X63627000Y-52578000D03*
%TO.N,FrontLoop*%
X65024000Y-42764200D03*
%TO.N,RearLoop*%
X71374000Y-42926000D03*
%TO.N,12V*%
X44958000Y-55753000D03*
X45847000Y-56134000D03*
X63627000Y-51308000D03*
%TD*%
D20*
%TO.N,GND*%
X83653000Y-44323000D02*
X79208000Y-39878000D01*
D21*
X43578000Y-40640000D02*
X42164000Y-42054000D01*
D20*
X79208000Y-39878000D02*
X74422000Y-39878000D01*
D21*
X53594000Y-49784000D02*
X42418000Y-49784000D01*
X42164000Y-42054000D02*
X42164000Y-45974000D01*
D22*
X71882000Y-44958000D02*
X71120000Y-44196000D01*
D20*
X83653000Y-52785000D02*
X83653000Y-44323000D01*
D22*
X73931000Y-44958000D02*
X71882000Y-44958000D01*
D20*
%TO.N,5V*%
X45664999Y-43053000D02*
X45339000Y-43053000D01*
X48346001Y-43908000D02*
X46578000Y-42139999D01*
X67056000Y-45212000D02*
X66802000Y-44958000D01*
D23*
X68326000Y-44958000D02*
X69215000Y-44069000D01*
D20*
X46578000Y-42139999D02*
X45664999Y-43053000D01*
D22*
X78653000Y-44323000D02*
X78653000Y-52785000D01*
D20*
X74168000Y-49149000D02*
X69215000Y-49149000D01*
D22*
X78653000Y-52785000D02*
X78653000Y-53551000D01*
D23*
X64516000Y-44958000D02*
X66531000Y-44958000D01*
D20*
X51100189Y-43908000D02*
X48346001Y-43908000D01*
D22*
X66531000Y-44958000D02*
X68326000Y-44958000D01*
D20*
X75311000Y-56893000D02*
X75311000Y-50292000D01*
X45339000Y-43053000D02*
X44450000Y-43053000D01*
X66802000Y-44958000D02*
X66531000Y-44958000D01*
X66531000Y-44958000D02*
X52150189Y-44958000D01*
X75311000Y-50292000D02*
X74168000Y-49149000D01*
D22*
X78653000Y-53551000D02*
X75311000Y-56893000D01*
D20*
X52150189Y-44958000D02*
X51100189Y-43908000D01*
X46578000Y-42139999D02*
X46578000Y-40640000D01*
X69215000Y-49149000D02*
X67056000Y-46990000D01*
D23*
X63500000Y-43942000D02*
X64516000Y-44958000D01*
D20*
X70866000Y-61338000D02*
X75311000Y-56893000D01*
X67056000Y-46990000D02*
X67056000Y-45212000D01*
%TO.N,Net-(D1-K)*%
X67180000Y-51438000D02*
X66040000Y-52578000D01*
X70866000Y-51438000D02*
X67180000Y-51438000D01*
X66040000Y-52578000D02*
X63627000Y-52578000D01*
X63627000Y-52578000D02*
X62865000Y-52578000D01*
D24*
%TO.N,FrontLoop*%
X60816185Y-43238900D02*
X55176900Y-43238900D01*
X55176900Y-43238900D02*
X52578000Y-40640000D01*
X65024000Y-42764200D02*
X61290885Y-42764200D01*
X61290885Y-42764200D02*
X60816185Y-43238900D01*
%TO.N,RearLoop*%
X69088000Y-43180000D02*
X68914900Y-43353100D01*
X61236275Y-43353100D02*
X60972675Y-43616700D01*
X71120000Y-43180000D02*
X69088000Y-43180000D01*
X60972675Y-43616700D02*
X52554700Y-43616700D01*
X71374000Y-42926000D02*
X71120000Y-43180000D01*
X68914900Y-43353100D02*
X61236275Y-43353100D01*
X52554700Y-43616700D02*
X49578000Y-40640000D01*
D21*
%TO.N,12V*%
X59586037Y-50927000D02*
X59586037Y-53441600D01*
D22*
X59577637Y-53450000D02*
X59577637Y-54214363D01*
X45339000Y-56134000D02*
X44958000Y-55753000D01*
X59577637Y-54214363D02*
X57658000Y-56134000D01*
X63627000Y-51308000D02*
X63373000Y-51308000D01*
D21*
X59586037Y-48150000D02*
X59586037Y-50927000D01*
D22*
X62992000Y-50927000D02*
X59586037Y-50927000D01*
D21*
X59586037Y-53441600D02*
X59577637Y-53450000D01*
D22*
X63373000Y-51308000D02*
X62992000Y-50927000D01*
X57658000Y-56134000D02*
X45339000Y-56134000D01*
%TD*%
%TA.AperFunction,Conductor*%
%TO.N,GND*%
G36*
X71845077Y-43695709D02*
G01*
X71881999Y-43696000D01*
X71882000Y-43696000D01*
X71882000Y-43695999D01*
X73406000Y-43708000D01*
X73406000Y-44450000D01*
X73406000Y-45988203D01*
X73403993Y-46010421D01*
X73385584Y-46111500D01*
X73369920Y-46153079D01*
X73322916Y-46231420D01*
X73293598Y-46264810D01*
X73213071Y-46328620D01*
X73194413Y-46340845D01*
X71992563Y-46981833D01*
X70085538Y-47998912D01*
X70027185Y-48013500D01*
X69736702Y-48013500D01*
X69669663Y-47993815D01*
X69649021Y-47977181D01*
X68577591Y-46905751D01*
X68544106Y-46844428D01*
X68549090Y-46774736D01*
X68590962Y-46718803D01*
X68627985Y-46701986D01*
X68627370Y-46700129D01*
X68667375Y-46686872D01*
X68800334Y-46642814D01*
X68949656Y-46550712D01*
X69073712Y-46426656D01*
X69165814Y-46277334D01*
X69220999Y-46110797D01*
X69231500Y-46008009D01*
X69231499Y-45855022D01*
X69251183Y-45787985D01*
X69257196Y-45779444D01*
X70744652Y-43845752D01*
X70757392Y-43831591D01*
X70786737Y-43803629D01*
X70848850Y-43771633D01*
X70872277Y-43769400D01*
X71197593Y-43769400D01*
X71197596Y-43769400D01*
X71341934Y-43730724D01*
X71374023Y-43726500D01*
X71452844Y-43726500D01*
X71545847Y-43708000D01*
X71604221Y-43696388D01*
X71629378Y-43694010D01*
X71845077Y-43695709D01*
G37*
%TD.AperFunction*%
%TD*%
%TA.AperFunction,Conductor*%
%TO.N,GND*%
G36*
X44206629Y-38863525D02*
G01*
X44295345Y-38877576D01*
X44297582Y-38878302D01*
X44298827Y-38878178D01*
X44332230Y-38889561D01*
X44403450Y-38925850D01*
X44434832Y-38948651D01*
X44491348Y-39005167D01*
X44514151Y-39036552D01*
X44550436Y-39107764D01*
X44562425Y-39144662D01*
X44576473Y-39233357D01*
X44578000Y-39252755D01*
X44578000Y-41265244D01*
X44576473Y-41284641D01*
X44576473Y-41284642D01*
X44562425Y-41373337D01*
X44550436Y-41410235D01*
X44514151Y-41481447D01*
X44491348Y-41512832D01*
X44434832Y-41569348D01*
X44403447Y-41592151D01*
X44332235Y-41628436D01*
X44295337Y-41640425D01*
X44231975Y-41650460D01*
X44206640Y-41654473D01*
X44187244Y-41656000D01*
X41538756Y-41656000D01*
X41519359Y-41654473D01*
X41476506Y-41647686D01*
X41430662Y-41640425D01*
X41393765Y-41628436D01*
X41322551Y-41592150D01*
X41291167Y-41569348D01*
X41234651Y-41512832D01*
X41211850Y-41481450D01*
X41175561Y-41410230D01*
X41163576Y-41373345D01*
X41149525Y-41284629D01*
X41148000Y-41265244D01*
X41148000Y-39252755D01*
X41149524Y-39233371D01*
X41163576Y-39144650D01*
X41175560Y-39107771D01*
X41211851Y-39036546D01*
X41234648Y-39005170D01*
X41291170Y-38948648D01*
X41322546Y-38925851D01*
X41393771Y-38889560D01*
X41430654Y-38877576D01*
X41519369Y-38863525D01*
X41538756Y-38862000D01*
X44187244Y-38862000D01*
X44206629Y-38863525D01*
G37*
%TD.AperFunction*%
%TD*%
%TA.AperFunction,Conductor*%
%TO.N,GND*%
G36*
X75574629Y-39117525D02*
G01*
X75663345Y-39131576D01*
X75665582Y-39132302D01*
X75666827Y-39132178D01*
X75700230Y-39143561D01*
X75771450Y-39179850D01*
X75802832Y-39202651D01*
X75859348Y-39259167D01*
X75882151Y-39290552D01*
X75918436Y-39361764D01*
X75930425Y-39398662D01*
X75944473Y-39487357D01*
X75946000Y-39506755D01*
X75946000Y-44059244D01*
X75944473Y-44078642D01*
X75930425Y-44167337D01*
X75918436Y-44204235D01*
X75882151Y-44275447D01*
X75859348Y-44306832D01*
X75802832Y-44363348D01*
X75771447Y-44386151D01*
X75700235Y-44422436D01*
X75663337Y-44434425D01*
X75599975Y-44444460D01*
X75574640Y-44448473D01*
X75555244Y-44450000D01*
X73406000Y-44450000D01*
X73406000Y-43708000D01*
X71882000Y-43696000D01*
X71882000Y-43601441D01*
X71901685Y-43534402D01*
X71918319Y-43513760D01*
X71995786Y-43436292D01*
X71995789Y-43436289D01*
X72083394Y-43305179D01*
X72143737Y-43159497D01*
X72174500Y-43004842D01*
X72174500Y-42847158D01*
X72174500Y-42847155D01*
X72174499Y-42847153D01*
X72157899Y-42763700D01*
X72143737Y-42692503D01*
X72143735Y-42692498D01*
X72083397Y-42546827D01*
X72083390Y-42546814D01*
X71995789Y-42415711D01*
X71995786Y-42415707D01*
X71884292Y-42304213D01*
X71884288Y-42304210D01*
X71753185Y-42216609D01*
X71753172Y-42216602D01*
X71607501Y-42156264D01*
X71607489Y-42156261D01*
X71452845Y-42125500D01*
X71452842Y-42125500D01*
X71295158Y-42125500D01*
X71295155Y-42125500D01*
X71140511Y-42156260D01*
X71134680Y-42158030D01*
X71134253Y-42156623D01*
X71097160Y-42164000D01*
X68850000Y-42164000D01*
X68850000Y-39267000D01*
X68072000Y-39267000D01*
X68072000Y-39116000D01*
X75555244Y-39116000D01*
X75574629Y-39117525D01*
G37*
%TD.AperFunction*%
%TD*%
%TA.AperFunction,Conductor*%
%TO.N,GND*%
G36*
X43768524Y-43961685D02*
G01*
X43774370Y-43965681D01*
X43854868Y-44024167D01*
X44014119Y-44105309D01*
X44014121Y-44105309D01*
X44014124Y-44105311D01*
X44014122Y-44105311D01*
X44097249Y-44132320D01*
X44109810Y-44140909D01*
X44124474Y-44144988D01*
X44138068Y-44160230D01*
X44154925Y-44171757D01*
X44161566Y-44186579D01*
X44170979Y-44197133D01*
X44181405Y-44230852D01*
X44194473Y-44313356D01*
X44196000Y-44332755D01*
X44196000Y-45726321D01*
X44191775Y-45758414D01*
X44166731Y-45851881D01*
X44166729Y-45851892D01*
X44132500Y-46111872D01*
X44132500Y-46374127D01*
X44159123Y-46576339D01*
X44166730Y-46634116D01*
X44191775Y-46727585D01*
X44196000Y-46759678D01*
X44196000Y-52726321D01*
X44191775Y-52758414D01*
X44166731Y-52851881D01*
X44166729Y-52851892D01*
X44132500Y-53111872D01*
X44132500Y-53374127D01*
X44159123Y-53576339D01*
X44166730Y-53634116D01*
X44191775Y-53727585D01*
X44196000Y-53759678D01*
X44196000Y-55476160D01*
X44188623Y-55513253D01*
X44190030Y-55513680D01*
X44188260Y-55519511D01*
X44157500Y-55674153D01*
X44157500Y-55831846D01*
X44188261Y-55986490D01*
X44190032Y-55992328D01*
X44188620Y-55992756D01*
X44196000Y-56029841D01*
X44196000Y-59726321D01*
X44191775Y-59758414D01*
X44166731Y-59851881D01*
X44166729Y-59851892D01*
X44132500Y-60111872D01*
X44132500Y-60374127D01*
X44159123Y-60576339D01*
X44166730Y-60634116D01*
X44191775Y-60727585D01*
X44196000Y-60759678D01*
X44196000Y-62347244D01*
X44194473Y-62366642D01*
X44180425Y-62455337D01*
X44168436Y-62492235D01*
X44132151Y-62563447D01*
X44109348Y-62594832D01*
X44052832Y-62651348D01*
X44021447Y-62674151D01*
X43950235Y-62710436D01*
X43913337Y-62722425D01*
X43849975Y-62732460D01*
X43824640Y-62736473D01*
X43805244Y-62738000D01*
X40522757Y-62738000D01*
X40503353Y-62736472D01*
X40497054Y-62735474D01*
X40433921Y-62705542D01*
X40397798Y-62648996D01*
X40396829Y-62645801D01*
X40392089Y-62621977D01*
X40379097Y-62490062D01*
X40378500Y-62477908D01*
X40378500Y-44069208D01*
X40388105Y-44036497D01*
X40397239Y-44003664D01*
X40397925Y-44003051D01*
X40398185Y-44002169D01*
X40423914Y-43979874D01*
X40449384Y-43957160D01*
X40450540Y-43956802D01*
X40450989Y-43956414D01*
X40483097Y-43946736D01*
X40503369Y-43943525D01*
X40522756Y-43942000D01*
X43701485Y-43942000D01*
X43768524Y-43961685D01*
G37*
%TD.AperFunction*%
%TD*%
%TA.AperFunction,Conductor*%
%TO.N,GND*%
G36*
X68072000Y-39267000D02*
G01*
X65850000Y-39267000D01*
X65850000Y-42164000D01*
X65604215Y-42164000D01*
X65537176Y-42144315D01*
X65535324Y-42143102D01*
X65403185Y-42054809D01*
X65403172Y-42054802D01*
X65257501Y-41994464D01*
X65257489Y-41994461D01*
X65102845Y-41963700D01*
X65102842Y-41963700D01*
X64945158Y-41963700D01*
X64945155Y-41963700D01*
X64790510Y-41994461D01*
X64790498Y-41994464D01*
X64644827Y-42054802D01*
X64644814Y-42054809D01*
X64512676Y-42143102D01*
X64445998Y-42163980D01*
X64443785Y-42164000D01*
X56270756Y-42164000D01*
X56251359Y-42162473D01*
X56190247Y-42152794D01*
X56162662Y-42148425D01*
X56125765Y-42136436D01*
X56054551Y-42100150D01*
X56023167Y-42077348D01*
X55966651Y-42020832D01*
X55943850Y-41989450D01*
X55907561Y-41918230D01*
X55895576Y-41881345D01*
X55881525Y-41792629D01*
X55880000Y-41773244D01*
X55880000Y-39506755D01*
X55881524Y-39487371D01*
X55895576Y-39398652D01*
X55907560Y-39361771D01*
X55943851Y-39290546D01*
X55966648Y-39259170D01*
X56023170Y-39202648D01*
X56054546Y-39179851D01*
X56125771Y-39143560D01*
X56162654Y-39131576D01*
X56251369Y-39117525D01*
X56270756Y-39116000D01*
X68072000Y-39116000D01*
X68072000Y-39267000D01*
G37*
%TD.AperFunction*%
%TD*%
%TA.AperFunction,Conductor*%
%TO.N,GND*%
G36*
X60816086Y-57405662D02*
G01*
X60908477Y-57420943D01*
X60946791Y-57433973D01*
X61020244Y-57473316D01*
X61022982Y-57475422D01*
X61024806Y-57475885D01*
X61052321Y-57497989D01*
X61109192Y-57558885D01*
X61131617Y-57592572D01*
X61165853Y-57668539D01*
X61176237Y-57707652D01*
X61185175Y-57800870D01*
X61185452Y-57821171D01*
X60852566Y-62685700D01*
X60849905Y-62704122D01*
X60831267Y-62788030D01*
X60817884Y-62822654D01*
X60779927Y-62889092D01*
X60756895Y-62918205D01*
X60700977Y-62970427D01*
X60670360Y-62991418D01*
X60601487Y-63024750D01*
X60566030Y-63035737D01*
X60491789Y-63046976D01*
X60481045Y-63048603D01*
X60462486Y-63050000D01*
X58690923Y-63050000D01*
X58672426Y-63048613D01*
X58643570Y-63044259D01*
X58587719Y-63035834D01*
X58552371Y-63024920D01*
X58483679Y-62991806D01*
X58453127Y-62970952D01*
X58397255Y-62919043D01*
X58374216Y-62890104D01*
X58336150Y-62824031D01*
X58322671Y-62789580D01*
X58303706Y-62706036D01*
X58300965Y-62687699D01*
X57942857Y-57823160D01*
X57943034Y-57802802D01*
X57951567Y-57709240D01*
X57961819Y-57669971D01*
X57995887Y-57593643D01*
X58018275Y-57559785D01*
X58019112Y-57558885D01*
X58075169Y-57498550D01*
X58107290Y-57473737D01*
X58180917Y-57434155D01*
X58219319Y-57421050D01*
X58312007Y-57405671D01*
X58332293Y-57404000D01*
X60795852Y-57404000D01*
X60816086Y-57405662D01*
G37*
%TD.AperFunction*%
%TD*%
%TA.AperFunction,Conductor*%
%TO.N,GND*%
G36*
X68850000Y-42164000D02*
G01*
X68850000Y-42457289D01*
X68847617Y-42481479D01*
X68847617Y-42481481D01*
X68831557Y-42562218D01*
X68813042Y-42606918D01*
X68774224Y-42665012D01*
X68740018Y-42699219D01*
X68731198Y-42705113D01*
X68726069Y-42708303D01*
X68721168Y-42711814D01*
X68681918Y-42738041D01*
X68674215Y-42741231D01*
X68670502Y-42744815D01*
X68637218Y-42756557D01*
X68629908Y-42758011D01*
X68613287Y-42761317D01*
X68589097Y-42763700D01*
X66110903Y-42763700D01*
X66086714Y-42761317D01*
X66066548Y-42757306D01*
X66062777Y-42756556D01*
X66018082Y-42738042D01*
X66018081Y-42738041D01*
X65959984Y-42699222D01*
X65925777Y-42665015D01*
X65886954Y-42606913D01*
X65868443Y-42562222D01*
X65852381Y-42481471D01*
X65850000Y-42457289D01*
X65850000Y-42164000D01*
X65850000Y-39267000D01*
X68850000Y-39267000D01*
X68850000Y-42164000D01*
G37*
%TD.AperFunction*%
%TD*%
M02*
