M48
; DRILL file {KiCad 9.0.8} date 2026-03-26T16:54:28-0400
; FORMAT={-:-/ absolute / inch / decimal}
; #@! TF.CreationDate,2026-03-26T16:54:28-04:00
; #@! TF.GenerationSoftware,Kicad,Pcbnew,9.0.8
; #@! TF.FileFunction,Plated,1,2,PTH
FMAT,2
INCH
; #@! TA.AperFunction,Plated,PTH,ViaDrill
T1C0.0118
; #@! TA.AperFunction,Plated,PTH,ComponentDrill
T2C0.0394
; #@! TA.AperFunction,Plated,PTH,ComponentDrill
T3C0.2559
%
G90
G05
T1
X1.6065Y-1.75
X1.6065Y-2.1
X1.6065Y-2.33
X1.6065Y-2.45
X1.64Y-1.62
X1.66Y-1.55
X1.66Y-1.59
X1.72Y-1.75
X1.72Y-2.1
X1.72Y-2.33
X1.72Y-2.45
X1.7207Y-1.8689
X1.7244Y-1.9792
X1.75Y-1.695
X1.76Y-1.98
X1.77Y-2.195
X1.785Y-1.695
X1.805Y-2.21
X2.09Y-1.94
X2.09Y-1.98
X2.11Y-1.96
X2.13Y-1.94
X2.13Y-1.98
X2.22Y-1.56
X2.22Y-1.6
X2.22Y-1.64
X2.3Y-2.28
X2.34Y-2.28
X2.38Y-2.28
X2.475Y-2.07
X2.5Y-1.73
X2.505Y-2.02
X2.505Y-2.07
X2.56Y-1.6836
X2.61Y-1.67
X2.65Y-1.67
X2.69Y-1.67
X2.72Y-1.84
X2.725Y-1.735
X2.74Y-1.87
X2.75Y-1.84
X2.785Y-1.94
X2.8Y-1.74
X2.81Y-1.69
X2.96Y-1.7
T2
X3.0966Y-1.745
X3.0966Y-2.0781
X3.195Y-1.9419
X3.195Y-2.275
X3.2934Y-1.745
X3.2934Y-2.0781
T3
X3.65Y-2.0
T2
G00X1.9737Y-1.8206
M15
G01X1.8163Y-1.8206
M16
G05
G00X1.9737Y-2.0962
M15
G01X1.8163Y-2.0962
M16
G05
G00X1.9737Y-2.3718
M15
G01X1.8163Y-2.3718
M16
G05
M30
