%TF.GenerationSoftware,KiCad,Pcbnew,9.0.8*%
%TF.CreationDate,2026-03-26T16:54:31-04:00*%
%TF.ProjectId,BrakeSwitch,4272616b-6553-4776-9974-63682e6b6963,rev?*%
%TF.SameCoordinates,Original*%
%TF.FileFunction,Legend,Bot*%
%TF.FilePolarity,Positive*%
%FSLAX46Y46*%
G04 Gerber Fmt 4.6, Leading zero omitted, Abs format (unit mm)*
G04 Created by KiCad (PCBNEW 9.0.8) date 2026-03-26 16:54:31*
%MOMM*%
%LPD*%
G01*
G04 APERTURE LIST*
%ADD10C,0.100000*%
%ADD11C,0.150000*%
%ADD12C,0.120000*%
G04 APERTURE END LIST*
D10*
X90882115Y-40934475D02*
X90882115Y-39934475D01*
X90882115Y-39934475D02*
X90644020Y-39934475D01*
X90644020Y-39934475D02*
X90501163Y-39982094D01*
X90501163Y-39982094D02*
X90405925Y-40077332D01*
X90405925Y-40077332D02*
X90358306Y-40172570D01*
X90358306Y-40172570D02*
X90310687Y-40363046D01*
X90310687Y-40363046D02*
X90310687Y-40505903D01*
X90310687Y-40505903D02*
X90358306Y-40696379D01*
X90358306Y-40696379D02*
X90405925Y-40791617D01*
X90405925Y-40791617D02*
X90501163Y-40886856D01*
X90501163Y-40886856D02*
X90644020Y-40934475D01*
X90644020Y-40934475D02*
X90882115Y-40934475D01*
X89882115Y-40934475D02*
X89882115Y-40267808D01*
X89882115Y-39934475D02*
X89929734Y-39982094D01*
X89929734Y-39982094D02*
X89882115Y-40029713D01*
X89882115Y-40029713D02*
X89834496Y-39982094D01*
X89834496Y-39982094D02*
X89882115Y-39934475D01*
X89882115Y-39934475D02*
X89882115Y-40029713D01*
X88977354Y-40934475D02*
X88977354Y-39934475D01*
X88977354Y-40886856D02*
X89072592Y-40934475D01*
X89072592Y-40934475D02*
X89263068Y-40934475D01*
X89263068Y-40934475D02*
X89358306Y-40886856D01*
X89358306Y-40886856D02*
X89405925Y-40839236D01*
X89405925Y-40839236D02*
X89453544Y-40743998D01*
X89453544Y-40743998D02*
X89453544Y-40458284D01*
X89453544Y-40458284D02*
X89405925Y-40363046D01*
X89405925Y-40363046D02*
X89358306Y-40315427D01*
X89358306Y-40315427D02*
X89263068Y-40267808D01*
X89263068Y-40267808D02*
X89072592Y-40267808D01*
X89072592Y-40267808D02*
X88977354Y-40315427D01*
X88072592Y-40934475D02*
X88072592Y-39934475D01*
X88072592Y-40886856D02*
X88167830Y-40934475D01*
X88167830Y-40934475D02*
X88358306Y-40934475D01*
X88358306Y-40934475D02*
X88453544Y-40886856D01*
X88453544Y-40886856D02*
X88501163Y-40839236D01*
X88501163Y-40839236D02*
X88548782Y-40743998D01*
X88548782Y-40743998D02*
X88548782Y-40458284D01*
X88548782Y-40458284D02*
X88501163Y-40363046D01*
X88501163Y-40363046D02*
X88453544Y-40315427D01*
X88453544Y-40315427D02*
X88358306Y-40267808D01*
X88358306Y-40267808D02*
X88167830Y-40267808D01*
X88167830Y-40267808D02*
X88072592Y-40315427D01*
X87691639Y-40267808D02*
X87453544Y-40934475D01*
X87215449Y-40267808D02*
X87453544Y-40934475D01*
X87453544Y-40934475D02*
X87548782Y-41172570D01*
X87548782Y-41172570D02*
X87596401Y-41220189D01*
X87596401Y-41220189D02*
X87691639Y-41267808D01*
X86786877Y-39934475D02*
X86882115Y-40124951D01*
X86405925Y-40886856D02*
X86310687Y-40934475D01*
X86310687Y-40934475D02*
X86120211Y-40934475D01*
X86120211Y-40934475D02*
X86024973Y-40886856D01*
X86024973Y-40886856D02*
X85977354Y-40791617D01*
X85977354Y-40791617D02*
X85977354Y-40743998D01*
X85977354Y-40743998D02*
X86024973Y-40648760D01*
X86024973Y-40648760D02*
X86120211Y-40601141D01*
X86120211Y-40601141D02*
X86263068Y-40601141D01*
X86263068Y-40601141D02*
X86358306Y-40553522D01*
X86358306Y-40553522D02*
X86405925Y-40458284D01*
X86405925Y-40458284D02*
X86405925Y-40410665D01*
X86405925Y-40410665D02*
X86358306Y-40315427D01*
X86358306Y-40315427D02*
X86263068Y-40267808D01*
X86263068Y-40267808D02*
X86120211Y-40267808D01*
X86120211Y-40267808D02*
X86024973Y-40315427D01*
X84786877Y-40934475D02*
X84786877Y-39934475D01*
X84786877Y-39934475D02*
X84453544Y-40648760D01*
X84453544Y-40648760D02*
X84120211Y-39934475D01*
X84120211Y-39934475D02*
X84120211Y-40934475D01*
X83644020Y-40934475D02*
X83644020Y-40267808D01*
X83644020Y-39934475D02*
X83691639Y-39982094D01*
X83691639Y-39982094D02*
X83644020Y-40029713D01*
X83644020Y-40029713D02*
X83596401Y-39982094D01*
X83596401Y-39982094D02*
X83644020Y-39934475D01*
X83644020Y-39934475D02*
X83644020Y-40029713D01*
X83167830Y-40267808D02*
X83167830Y-40934475D01*
X83167830Y-40363046D02*
X83120211Y-40315427D01*
X83120211Y-40315427D02*
X83024973Y-40267808D01*
X83024973Y-40267808D02*
X82882116Y-40267808D01*
X82882116Y-40267808D02*
X82786878Y-40315427D01*
X82786878Y-40315427D02*
X82739259Y-40410665D01*
X82739259Y-40410665D02*
X82739259Y-40934475D01*
X82263068Y-40934475D02*
X82263068Y-40267808D01*
X82263068Y-39934475D02*
X82310687Y-39982094D01*
X82310687Y-39982094D02*
X82263068Y-40029713D01*
X82263068Y-40029713D02*
X82215449Y-39982094D01*
X82215449Y-39982094D02*
X82263068Y-39934475D01*
X82263068Y-39934475D02*
X82263068Y-40029713D01*
X81644021Y-40934475D02*
X81739259Y-40886856D01*
X81739259Y-40886856D02*
X81786878Y-40839236D01*
X81786878Y-40839236D02*
X81834497Y-40743998D01*
X81834497Y-40743998D02*
X81834497Y-40458284D01*
X81834497Y-40458284D02*
X81786878Y-40363046D01*
X81786878Y-40363046D02*
X81739259Y-40315427D01*
X81739259Y-40315427D02*
X81644021Y-40267808D01*
X81644021Y-40267808D02*
X81501164Y-40267808D01*
X81501164Y-40267808D02*
X81405926Y-40315427D01*
X81405926Y-40315427D02*
X81358307Y-40363046D01*
X81358307Y-40363046D02*
X81310688Y-40458284D01*
X81310688Y-40458284D02*
X81310688Y-40743998D01*
X81310688Y-40743998D02*
X81358307Y-40839236D01*
X81358307Y-40839236D02*
X81405926Y-40886856D01*
X81405926Y-40886856D02*
X81501164Y-40934475D01*
X81501164Y-40934475D02*
X81644021Y-40934475D01*
X80882116Y-40267808D02*
X80882116Y-40934475D01*
X80882116Y-40363046D02*
X80834497Y-40315427D01*
X80834497Y-40315427D02*
X80739259Y-40267808D01*
X80739259Y-40267808D02*
X80596402Y-40267808D01*
X80596402Y-40267808D02*
X80501164Y-40315427D01*
X80501164Y-40315427D02*
X80453545Y-40410665D01*
X80453545Y-40410665D02*
X80453545Y-40934475D01*
X90310687Y-42544419D02*
X90644020Y-42068228D01*
X90882115Y-42544419D02*
X90882115Y-41544419D01*
X90882115Y-41544419D02*
X90501163Y-41544419D01*
X90501163Y-41544419D02*
X90405925Y-41592038D01*
X90405925Y-41592038D02*
X90358306Y-41639657D01*
X90358306Y-41639657D02*
X90310687Y-41734895D01*
X90310687Y-41734895D02*
X90310687Y-41877752D01*
X90310687Y-41877752D02*
X90358306Y-41972990D01*
X90358306Y-41972990D02*
X90405925Y-42020609D01*
X90405925Y-42020609D02*
X90501163Y-42068228D01*
X90501163Y-42068228D02*
X90882115Y-42068228D01*
X89882115Y-42544419D02*
X89882115Y-41544419D01*
X89548782Y-41544419D02*
X88977354Y-41544419D01*
X89263068Y-42544419D02*
X89263068Y-41544419D01*
X87548782Y-42020609D02*
X87405925Y-42068228D01*
X87405925Y-42068228D02*
X87358306Y-42115847D01*
X87358306Y-42115847D02*
X87310687Y-42211085D01*
X87310687Y-42211085D02*
X87310687Y-42353942D01*
X87310687Y-42353942D02*
X87358306Y-42449180D01*
X87358306Y-42449180D02*
X87405925Y-42496800D01*
X87405925Y-42496800D02*
X87501163Y-42544419D01*
X87501163Y-42544419D02*
X87882115Y-42544419D01*
X87882115Y-42544419D02*
X87882115Y-41544419D01*
X87882115Y-41544419D02*
X87548782Y-41544419D01*
X87548782Y-41544419D02*
X87453544Y-41592038D01*
X87453544Y-41592038D02*
X87405925Y-41639657D01*
X87405925Y-41639657D02*
X87358306Y-41734895D01*
X87358306Y-41734895D02*
X87358306Y-41830133D01*
X87358306Y-41830133D02*
X87405925Y-41925371D01*
X87405925Y-41925371D02*
X87453544Y-41972990D01*
X87453544Y-41972990D02*
X87548782Y-42020609D01*
X87548782Y-42020609D02*
X87882115Y-42020609D01*
X86453544Y-42544419D02*
X86453544Y-42020609D01*
X86453544Y-42020609D02*
X86501163Y-41925371D01*
X86501163Y-41925371D02*
X86596401Y-41877752D01*
X86596401Y-41877752D02*
X86786877Y-41877752D01*
X86786877Y-41877752D02*
X86882115Y-41925371D01*
X86453544Y-42496800D02*
X86548782Y-42544419D01*
X86548782Y-42544419D02*
X86786877Y-42544419D01*
X86786877Y-42544419D02*
X86882115Y-42496800D01*
X86882115Y-42496800D02*
X86929734Y-42401561D01*
X86929734Y-42401561D02*
X86929734Y-42306323D01*
X86929734Y-42306323D02*
X86882115Y-42211085D01*
X86882115Y-42211085D02*
X86786877Y-42163466D01*
X86786877Y-42163466D02*
X86548782Y-42163466D01*
X86548782Y-42163466D02*
X86453544Y-42115847D01*
X85977353Y-41877752D02*
X85977353Y-42734895D01*
X85977353Y-42734895D02*
X86024972Y-42830133D01*
X86024972Y-42830133D02*
X86120210Y-42877752D01*
X86120210Y-42877752D02*
X86167829Y-42877752D01*
X85977353Y-41544419D02*
X86024972Y-41592038D01*
X86024972Y-41592038D02*
X85977353Y-41639657D01*
X85977353Y-41639657D02*
X85929734Y-41592038D01*
X85929734Y-41592038D02*
X85977353Y-41544419D01*
X85977353Y-41544419D02*
X85977353Y-41639657D01*
X85072592Y-42544419D02*
X85072592Y-42020609D01*
X85072592Y-42020609D02*
X85120211Y-41925371D01*
X85120211Y-41925371D02*
X85215449Y-41877752D01*
X85215449Y-41877752D02*
X85405925Y-41877752D01*
X85405925Y-41877752D02*
X85501163Y-41925371D01*
X85072592Y-42496800D02*
X85167830Y-42544419D01*
X85167830Y-42544419D02*
X85405925Y-42544419D01*
X85405925Y-42544419D02*
X85501163Y-42496800D01*
X85501163Y-42496800D02*
X85548782Y-42401561D01*
X85548782Y-42401561D02*
X85548782Y-42306323D01*
X85548782Y-42306323D02*
X85501163Y-42211085D01*
X85501163Y-42211085D02*
X85405925Y-42163466D01*
X85405925Y-42163466D02*
X85167830Y-42163466D01*
X85167830Y-42163466D02*
X85072592Y-42115847D01*
X83929734Y-41544419D02*
X83310687Y-41544419D01*
X83310687Y-41544419D02*
X83644020Y-41925371D01*
X83644020Y-41925371D02*
X83501163Y-41925371D01*
X83501163Y-41925371D02*
X83405925Y-41972990D01*
X83405925Y-41972990D02*
X83358306Y-42020609D01*
X83358306Y-42020609D02*
X83310687Y-42115847D01*
X83310687Y-42115847D02*
X83310687Y-42353942D01*
X83310687Y-42353942D02*
X83358306Y-42449180D01*
X83358306Y-42449180D02*
X83405925Y-42496800D01*
X83405925Y-42496800D02*
X83501163Y-42544419D01*
X83501163Y-42544419D02*
X83786877Y-42544419D01*
X83786877Y-42544419D02*
X83882115Y-42496800D01*
X83882115Y-42496800D02*
X83929734Y-42449180D01*
X82167830Y-41496800D02*
X83024972Y-42782514D01*
X81310687Y-42544419D02*
X81882115Y-42544419D01*
X81596401Y-42544419D02*
X81596401Y-41544419D01*
X81596401Y-41544419D02*
X81691639Y-41687276D01*
X81691639Y-41687276D02*
X81786877Y-41782514D01*
X81786877Y-41782514D02*
X81882115Y-41830133D01*
X80834496Y-42544419D02*
X80644020Y-42544419D01*
X80644020Y-42544419D02*
X80548782Y-42496800D01*
X80548782Y-42496800D02*
X80501163Y-42449180D01*
X80501163Y-42449180D02*
X80405925Y-42306323D01*
X80405925Y-42306323D02*
X80358306Y-42115847D01*
X80358306Y-42115847D02*
X80358306Y-41734895D01*
X80358306Y-41734895D02*
X80405925Y-41639657D01*
X80405925Y-41639657D02*
X80453544Y-41592038D01*
X80453544Y-41592038D02*
X80548782Y-41544419D01*
X80548782Y-41544419D02*
X80739258Y-41544419D01*
X80739258Y-41544419D02*
X80834496Y-41592038D01*
X80834496Y-41592038D02*
X80882115Y-41639657D01*
X80882115Y-41639657D02*
X80929734Y-41734895D01*
X80929734Y-41734895D02*
X80929734Y-41972990D01*
X80929734Y-41972990D02*
X80882115Y-42068228D01*
X80882115Y-42068228D02*
X80834496Y-42115847D01*
X80834496Y-42115847D02*
X80739258Y-42163466D01*
X80739258Y-42163466D02*
X80548782Y-42163466D01*
X80548782Y-42163466D02*
X80453544Y-42115847D01*
X80453544Y-42115847D02*
X80405925Y-42068228D01*
X80405925Y-42068228D02*
X80358306Y-41972990D01*
X79215449Y-41496800D02*
X80072591Y-42782514D01*
X78929734Y-41639657D02*
X78882115Y-41592038D01*
X78882115Y-41592038D02*
X78786877Y-41544419D01*
X78786877Y-41544419D02*
X78548782Y-41544419D01*
X78548782Y-41544419D02*
X78453544Y-41592038D01*
X78453544Y-41592038D02*
X78405925Y-41639657D01*
X78405925Y-41639657D02*
X78358306Y-41734895D01*
X78358306Y-41734895D02*
X78358306Y-41830133D01*
X78358306Y-41830133D02*
X78405925Y-41972990D01*
X78405925Y-41972990D02*
X78977353Y-42544419D01*
X78977353Y-42544419D02*
X78358306Y-42544419D01*
X77739258Y-41544419D02*
X77644020Y-41544419D01*
X77644020Y-41544419D02*
X77548782Y-41592038D01*
X77548782Y-41592038D02*
X77501163Y-41639657D01*
X77501163Y-41639657D02*
X77453544Y-41734895D01*
X77453544Y-41734895D02*
X77405925Y-41925371D01*
X77405925Y-41925371D02*
X77405925Y-42163466D01*
X77405925Y-42163466D02*
X77453544Y-42353942D01*
X77453544Y-42353942D02*
X77501163Y-42449180D01*
X77501163Y-42449180D02*
X77548782Y-42496800D01*
X77548782Y-42496800D02*
X77644020Y-42544419D01*
X77644020Y-42544419D02*
X77739258Y-42544419D01*
X77739258Y-42544419D02*
X77834496Y-42496800D01*
X77834496Y-42496800D02*
X77882115Y-42449180D01*
X77882115Y-42449180D02*
X77929734Y-42353942D01*
X77929734Y-42353942D02*
X77977353Y-42163466D01*
X77977353Y-42163466D02*
X77977353Y-41925371D01*
X77977353Y-41925371D02*
X77929734Y-41734895D01*
X77929734Y-41734895D02*
X77882115Y-41639657D01*
X77882115Y-41639657D02*
X77834496Y-41592038D01*
X77834496Y-41592038D02*
X77739258Y-41544419D01*
X77024972Y-41639657D02*
X76977353Y-41592038D01*
X76977353Y-41592038D02*
X76882115Y-41544419D01*
X76882115Y-41544419D02*
X76644020Y-41544419D01*
X76644020Y-41544419D02*
X76548782Y-41592038D01*
X76548782Y-41592038D02*
X76501163Y-41639657D01*
X76501163Y-41639657D02*
X76453544Y-41734895D01*
X76453544Y-41734895D02*
X76453544Y-41830133D01*
X76453544Y-41830133D02*
X76501163Y-41972990D01*
X76501163Y-41972990D02*
X77072591Y-42544419D01*
X77072591Y-42544419D02*
X76453544Y-42544419D01*
X75596401Y-41544419D02*
X75786877Y-41544419D01*
X75786877Y-41544419D02*
X75882115Y-41592038D01*
X75882115Y-41592038D02*
X75929734Y-41639657D01*
X75929734Y-41639657D02*
X76024972Y-41782514D01*
X76024972Y-41782514D02*
X76072591Y-41972990D01*
X76072591Y-41972990D02*
X76072591Y-42353942D01*
X76072591Y-42353942D02*
X76024972Y-42449180D01*
X76024972Y-42449180D02*
X75977353Y-42496800D01*
X75977353Y-42496800D02*
X75882115Y-42544419D01*
X75882115Y-42544419D02*
X75691639Y-42544419D01*
X75691639Y-42544419D02*
X75596401Y-42496800D01*
X75596401Y-42496800D02*
X75548782Y-42449180D01*
X75548782Y-42449180D02*
X75501163Y-42353942D01*
X75501163Y-42353942D02*
X75501163Y-42115847D01*
X75501163Y-42115847D02*
X75548782Y-42020609D01*
X75548782Y-42020609D02*
X75596401Y-41972990D01*
X75596401Y-41972990D02*
X75691639Y-41925371D01*
X75691639Y-41925371D02*
X75882115Y-41925371D01*
X75882115Y-41925371D02*
X75977353Y-41972990D01*
X75977353Y-41972990D02*
X76024972Y-42020609D01*
X76024972Y-42020609D02*
X76072591Y-42115847D01*
X54292038Y-43499693D02*
X54244419Y-43404455D01*
X54244419Y-43404455D02*
X54244419Y-43261598D01*
X54244419Y-43261598D02*
X54292038Y-43118741D01*
X54292038Y-43118741D02*
X54387276Y-43023503D01*
X54387276Y-43023503D02*
X54482514Y-42975884D01*
X54482514Y-42975884D02*
X54672990Y-42928265D01*
X54672990Y-42928265D02*
X54815847Y-42928265D01*
X54815847Y-42928265D02*
X55006323Y-42975884D01*
X55006323Y-42975884D02*
X55101561Y-43023503D01*
X55101561Y-43023503D02*
X55196800Y-43118741D01*
X55196800Y-43118741D02*
X55244419Y-43261598D01*
X55244419Y-43261598D02*
X55244419Y-43356836D01*
X55244419Y-43356836D02*
X55196800Y-43499693D01*
X55196800Y-43499693D02*
X55149180Y-43547312D01*
X55149180Y-43547312D02*
X54815847Y-43547312D01*
X54815847Y-43547312D02*
X54815847Y-43356836D01*
X55244419Y-43975884D02*
X54244419Y-43975884D01*
X54244419Y-43975884D02*
X55244419Y-44547312D01*
X55244419Y-44547312D02*
X54244419Y-44547312D01*
X55244419Y-45023503D02*
X54244419Y-45023503D01*
X54244419Y-45023503D02*
X54244419Y-45261598D01*
X54244419Y-45261598D02*
X54292038Y-45404455D01*
X54292038Y-45404455D02*
X54387276Y-45499693D01*
X54387276Y-45499693D02*
X54482514Y-45547312D01*
X54482514Y-45547312D02*
X54672990Y-45594931D01*
X54672990Y-45594931D02*
X54815847Y-45594931D01*
X54815847Y-45594931D02*
X55006323Y-45547312D01*
X55006323Y-45547312D02*
X55101561Y-45499693D01*
X55101561Y-45499693D02*
X55196800Y-45404455D01*
X55196800Y-45404455D02*
X55244419Y-45261598D01*
X55244419Y-45261598D02*
X55244419Y-45023503D01*
X57594038Y-43499693D02*
X57546419Y-43404455D01*
X57546419Y-43404455D02*
X57546419Y-43261598D01*
X57546419Y-43261598D02*
X57594038Y-43118741D01*
X57594038Y-43118741D02*
X57689276Y-43023503D01*
X57689276Y-43023503D02*
X57784514Y-42975884D01*
X57784514Y-42975884D02*
X57974990Y-42928265D01*
X57974990Y-42928265D02*
X58117847Y-42928265D01*
X58117847Y-42928265D02*
X58308323Y-42975884D01*
X58308323Y-42975884D02*
X58403561Y-43023503D01*
X58403561Y-43023503D02*
X58498800Y-43118741D01*
X58498800Y-43118741D02*
X58546419Y-43261598D01*
X58546419Y-43261598D02*
X58546419Y-43356836D01*
X58546419Y-43356836D02*
X58498800Y-43499693D01*
X58498800Y-43499693D02*
X58451180Y-43547312D01*
X58451180Y-43547312D02*
X58117847Y-43547312D01*
X58117847Y-43547312D02*
X58117847Y-43356836D01*
X58546419Y-43975884D02*
X57546419Y-43975884D01*
X57546419Y-43975884D02*
X58546419Y-44547312D01*
X58546419Y-44547312D02*
X57546419Y-44547312D01*
X58546419Y-45023503D02*
X57546419Y-45023503D01*
X57546419Y-45023503D02*
X57546419Y-45261598D01*
X57546419Y-45261598D02*
X57594038Y-45404455D01*
X57594038Y-45404455D02*
X57689276Y-45499693D01*
X57689276Y-45499693D02*
X57784514Y-45547312D01*
X57784514Y-45547312D02*
X57974990Y-45594931D01*
X57974990Y-45594931D02*
X58117847Y-45594931D01*
X58117847Y-45594931D02*
X58308323Y-45547312D01*
X58308323Y-45547312D02*
X58403561Y-45499693D01*
X58403561Y-45499693D02*
X58498800Y-45404455D01*
X58498800Y-45404455D02*
X58546419Y-45261598D01*
X58546419Y-45261598D02*
X58546419Y-45023503D01*
X60594419Y-43452074D02*
X60594419Y-42975884D01*
X60594419Y-42975884D02*
X61070609Y-42928265D01*
X61070609Y-42928265D02*
X61022990Y-42975884D01*
X61022990Y-42975884D02*
X60975371Y-43071122D01*
X60975371Y-43071122D02*
X60975371Y-43309217D01*
X60975371Y-43309217D02*
X61022990Y-43404455D01*
X61022990Y-43404455D02*
X61070609Y-43452074D01*
X61070609Y-43452074D02*
X61165847Y-43499693D01*
X61165847Y-43499693D02*
X61403942Y-43499693D01*
X61403942Y-43499693D02*
X61499180Y-43452074D01*
X61499180Y-43452074D02*
X61546800Y-43404455D01*
X61546800Y-43404455D02*
X61594419Y-43309217D01*
X61594419Y-43309217D02*
X61594419Y-43071122D01*
X61594419Y-43071122D02*
X61546800Y-42975884D01*
X61546800Y-42975884D02*
X61499180Y-42928265D01*
X60594419Y-43785408D02*
X61594419Y-44118741D01*
X61594419Y-44118741D02*
X60594419Y-44452074D01*
X66738038Y-43245693D02*
X66690419Y-43150455D01*
X66690419Y-43150455D02*
X66690419Y-43007598D01*
X66690419Y-43007598D02*
X66738038Y-42864741D01*
X66738038Y-42864741D02*
X66833276Y-42769503D01*
X66833276Y-42769503D02*
X66928514Y-42721884D01*
X66928514Y-42721884D02*
X67118990Y-42674265D01*
X67118990Y-42674265D02*
X67261847Y-42674265D01*
X67261847Y-42674265D02*
X67452323Y-42721884D01*
X67452323Y-42721884D02*
X67547561Y-42769503D01*
X67547561Y-42769503D02*
X67642800Y-42864741D01*
X67642800Y-42864741D02*
X67690419Y-43007598D01*
X67690419Y-43007598D02*
X67690419Y-43102836D01*
X67690419Y-43102836D02*
X67642800Y-43245693D01*
X67642800Y-43245693D02*
X67595180Y-43293312D01*
X67595180Y-43293312D02*
X67261847Y-43293312D01*
X67261847Y-43293312D02*
X67261847Y-43102836D01*
X67690419Y-43721884D02*
X66690419Y-43721884D01*
X66690419Y-43721884D02*
X67690419Y-44293312D01*
X67690419Y-44293312D02*
X66690419Y-44293312D01*
X67690419Y-44769503D02*
X66690419Y-44769503D01*
X66690419Y-44769503D02*
X66690419Y-45007598D01*
X66690419Y-45007598D02*
X66738038Y-45150455D01*
X66738038Y-45150455D02*
X66833276Y-45245693D01*
X66833276Y-45245693D02*
X66928514Y-45293312D01*
X66928514Y-45293312D02*
X67118990Y-45340931D01*
X67118990Y-45340931D02*
X67261847Y-45340931D01*
X67261847Y-45340931D02*
X67452323Y-45293312D01*
X67452323Y-45293312D02*
X67547561Y-45245693D01*
X67547561Y-45245693D02*
X67642800Y-45150455D01*
X67642800Y-45150455D02*
X67690419Y-45007598D01*
X67690419Y-45007598D02*
X67690419Y-44769503D01*
X69738419Y-43198074D02*
X69738419Y-42721884D01*
X69738419Y-42721884D02*
X70214609Y-42674265D01*
X70214609Y-42674265D02*
X70166990Y-42721884D01*
X70166990Y-42721884D02*
X70119371Y-42817122D01*
X70119371Y-42817122D02*
X70119371Y-43055217D01*
X70119371Y-43055217D02*
X70166990Y-43150455D01*
X70166990Y-43150455D02*
X70214609Y-43198074D01*
X70214609Y-43198074D02*
X70309847Y-43245693D01*
X70309847Y-43245693D02*
X70547942Y-43245693D01*
X70547942Y-43245693D02*
X70643180Y-43198074D01*
X70643180Y-43198074D02*
X70690800Y-43150455D01*
X70690800Y-43150455D02*
X70738419Y-43055217D01*
X70738419Y-43055217D02*
X70738419Y-42817122D01*
X70738419Y-42817122D02*
X70690800Y-42721884D01*
X70690800Y-42721884D02*
X70643180Y-42674265D01*
X69738419Y-43531408D02*
X70738419Y-43864741D01*
X70738419Y-43864741D02*
X69738419Y-44198074D01*
X44976074Y-43291580D02*
X44499884Y-43291580D01*
X44499884Y-43291580D02*
X44452265Y-42815390D01*
X44452265Y-42815390D02*
X44499884Y-42863009D01*
X44499884Y-42863009D02*
X44595122Y-42910628D01*
X44595122Y-42910628D02*
X44833217Y-42910628D01*
X44833217Y-42910628D02*
X44928455Y-42863009D01*
X44928455Y-42863009D02*
X44976074Y-42815390D01*
X44976074Y-42815390D02*
X45023693Y-42720152D01*
X45023693Y-42720152D02*
X45023693Y-42482057D01*
X45023693Y-42482057D02*
X44976074Y-42386819D01*
X44976074Y-42386819D02*
X44928455Y-42339200D01*
X44928455Y-42339200D02*
X44833217Y-42291580D01*
X44833217Y-42291580D02*
X44595122Y-42291580D01*
X44595122Y-42291580D02*
X44499884Y-42339200D01*
X44499884Y-42339200D02*
X44452265Y-42386819D01*
X45309408Y-43291580D02*
X45642741Y-42291580D01*
X45642741Y-42291580D02*
X45976074Y-43291580D01*
X45023693Y-44513961D02*
X44928455Y-44561580D01*
X44928455Y-44561580D02*
X44785598Y-44561580D01*
X44785598Y-44561580D02*
X44642741Y-44513961D01*
X44642741Y-44513961D02*
X44547503Y-44418723D01*
X44547503Y-44418723D02*
X44499884Y-44323485D01*
X44499884Y-44323485D02*
X44452265Y-44133009D01*
X44452265Y-44133009D02*
X44452265Y-43990152D01*
X44452265Y-43990152D02*
X44499884Y-43799676D01*
X44499884Y-43799676D02*
X44547503Y-43704438D01*
X44547503Y-43704438D02*
X44642741Y-43609200D01*
X44642741Y-43609200D02*
X44785598Y-43561580D01*
X44785598Y-43561580D02*
X44880836Y-43561580D01*
X44880836Y-43561580D02*
X45023693Y-43609200D01*
X45023693Y-43609200D02*
X45071312Y-43656819D01*
X45071312Y-43656819D02*
X45071312Y-43990152D01*
X45071312Y-43990152D02*
X44880836Y-43990152D01*
X45499884Y-43561580D02*
X45499884Y-44561580D01*
X45499884Y-44561580D02*
X46071312Y-43561580D01*
X46071312Y-43561580D02*
X46071312Y-44561580D01*
X46547503Y-43561580D02*
X46547503Y-44561580D01*
X46547503Y-44561580D02*
X46785598Y-44561580D01*
X46785598Y-44561580D02*
X46928455Y-44513961D01*
X46928455Y-44513961D02*
X47023693Y-44418723D01*
X47023693Y-44418723D02*
X47071312Y-44323485D01*
X47071312Y-44323485D02*
X47118931Y-44133009D01*
X47118931Y-44133009D02*
X47118931Y-43990152D01*
X47118931Y-43990152D02*
X47071312Y-43799676D01*
X47071312Y-43799676D02*
X47023693Y-43704438D01*
X47023693Y-43704438D02*
X46928455Y-43609200D01*
X46928455Y-43609200D02*
X46785598Y-43561580D01*
X46785598Y-43561580D02*
X46547503Y-43561580D01*
X45484074Y-48641580D02*
X45007884Y-48641580D01*
X45007884Y-48641580D02*
X45007884Y-49641580D01*
X45817408Y-48641580D02*
X45817408Y-49308247D01*
X45817408Y-49641580D02*
X45769789Y-49593961D01*
X45769789Y-49593961D02*
X45817408Y-49546342D01*
X45817408Y-49546342D02*
X45865027Y-49593961D01*
X45865027Y-49593961D02*
X45817408Y-49641580D01*
X45817408Y-49641580D02*
X45817408Y-49546342D01*
X46722169Y-49308247D02*
X46722169Y-48498723D01*
X46722169Y-48498723D02*
X46674550Y-48403485D01*
X46674550Y-48403485D02*
X46626931Y-48355866D01*
X46626931Y-48355866D02*
X46531693Y-48308247D01*
X46531693Y-48308247D02*
X46388836Y-48308247D01*
X46388836Y-48308247D02*
X46293598Y-48355866D01*
X46722169Y-48689200D02*
X46626931Y-48641580D01*
X46626931Y-48641580D02*
X46436455Y-48641580D01*
X46436455Y-48641580D02*
X46341217Y-48689200D01*
X46341217Y-48689200D02*
X46293598Y-48736819D01*
X46293598Y-48736819D02*
X46245979Y-48832057D01*
X46245979Y-48832057D02*
X46245979Y-49117771D01*
X46245979Y-49117771D02*
X46293598Y-49213009D01*
X46293598Y-49213009D02*
X46341217Y-49260628D01*
X46341217Y-49260628D02*
X46436455Y-49308247D01*
X46436455Y-49308247D02*
X46626931Y-49308247D01*
X46626931Y-49308247D02*
X46722169Y-49260628D01*
X47198360Y-48641580D02*
X47198360Y-49641580D01*
X47626931Y-48641580D02*
X47626931Y-49165390D01*
X47626931Y-49165390D02*
X47579312Y-49260628D01*
X47579312Y-49260628D02*
X47484074Y-49308247D01*
X47484074Y-49308247D02*
X47341217Y-49308247D01*
X47341217Y-49308247D02*
X47245979Y-49260628D01*
X47245979Y-49260628D02*
X47198360Y-49213009D01*
X47960265Y-49308247D02*
X48341217Y-49308247D01*
X48103122Y-49641580D02*
X48103122Y-48784438D01*
X48103122Y-48784438D02*
X48150741Y-48689200D01*
X48150741Y-48689200D02*
X48245979Y-48641580D01*
X48245979Y-48641580D02*
X48341217Y-48641580D01*
X48674551Y-48641580D02*
X48674551Y-49641580D01*
X49150741Y-49308247D02*
X49150741Y-48641580D01*
X49150741Y-49213009D02*
X49198360Y-49260628D01*
X49198360Y-49260628D02*
X49293598Y-49308247D01*
X49293598Y-49308247D02*
X49436455Y-49308247D01*
X49436455Y-49308247D02*
X49531693Y-49260628D01*
X49531693Y-49260628D02*
X49579312Y-49165390D01*
X49579312Y-49165390D02*
X49579312Y-48641580D01*
X45531693Y-51117961D02*
X45436455Y-51165580D01*
X45436455Y-51165580D02*
X45293598Y-51165580D01*
X45293598Y-51165580D02*
X45150741Y-51117961D01*
X45150741Y-51117961D02*
X45055503Y-51022723D01*
X45055503Y-51022723D02*
X45007884Y-50927485D01*
X45007884Y-50927485D02*
X44960265Y-50737009D01*
X44960265Y-50737009D02*
X44960265Y-50594152D01*
X44960265Y-50594152D02*
X45007884Y-50403676D01*
X45007884Y-50403676D02*
X45055503Y-50308438D01*
X45055503Y-50308438D02*
X45150741Y-50213200D01*
X45150741Y-50213200D02*
X45293598Y-50165580D01*
X45293598Y-50165580D02*
X45388836Y-50165580D01*
X45388836Y-50165580D02*
X45531693Y-50213200D01*
X45531693Y-50213200D02*
X45579312Y-50260819D01*
X45579312Y-50260819D02*
X45579312Y-50594152D01*
X45579312Y-50594152D02*
X45388836Y-50594152D01*
X46007884Y-50165580D02*
X46007884Y-51165580D01*
X46007884Y-51165580D02*
X46579312Y-50165580D01*
X46579312Y-50165580D02*
X46579312Y-51165580D01*
X47055503Y-50165580D02*
X47055503Y-51165580D01*
X47055503Y-51165580D02*
X47293598Y-51165580D01*
X47293598Y-51165580D02*
X47436455Y-51117961D01*
X47436455Y-51117961D02*
X47531693Y-51022723D01*
X47531693Y-51022723D02*
X47579312Y-50927485D01*
X47579312Y-50927485D02*
X47626931Y-50737009D01*
X47626931Y-50737009D02*
X47626931Y-50594152D01*
X47626931Y-50594152D02*
X47579312Y-50403676D01*
X47579312Y-50403676D02*
X47531693Y-50308438D01*
X47531693Y-50308438D02*
X47436455Y-50213200D01*
X47436455Y-50213200D02*
X47293598Y-50165580D01*
X47293598Y-50165580D02*
X47055503Y-50165580D01*
X45531693Y-55499580D02*
X44960265Y-55499580D01*
X45245979Y-55499580D02*
X45245979Y-56499580D01*
X45245979Y-56499580D02*
X45150741Y-56356723D01*
X45150741Y-56356723D02*
X45055503Y-56261485D01*
X45055503Y-56261485D02*
X44960265Y-56213866D01*
X45912646Y-56404342D02*
X45960265Y-56451961D01*
X45960265Y-56451961D02*
X46055503Y-56499580D01*
X46055503Y-56499580D02*
X46293598Y-56499580D01*
X46293598Y-56499580D02*
X46388836Y-56451961D01*
X46388836Y-56451961D02*
X46436455Y-56404342D01*
X46436455Y-56404342D02*
X46484074Y-56309104D01*
X46484074Y-56309104D02*
X46484074Y-56213866D01*
X46484074Y-56213866D02*
X46436455Y-56071009D01*
X46436455Y-56071009D02*
X45865027Y-55499580D01*
X45865027Y-55499580D02*
X46484074Y-55499580D01*
X46769789Y-56499580D02*
X47103122Y-55499580D01*
X47103122Y-55499580D02*
X47436455Y-56499580D01*
X47769789Y-55499580D02*
X47769789Y-56166247D01*
X47769789Y-56499580D02*
X47722170Y-56451961D01*
X47722170Y-56451961D02*
X47769789Y-56404342D01*
X47769789Y-56404342D02*
X47817408Y-56451961D01*
X47817408Y-56451961D02*
X47769789Y-56499580D01*
X47769789Y-56499580D02*
X47769789Y-56404342D01*
X48245979Y-56166247D02*
X48245979Y-55499580D01*
X48245979Y-56071009D02*
X48293598Y-56118628D01*
X48293598Y-56118628D02*
X48388836Y-56166247D01*
X48388836Y-56166247D02*
X48531693Y-56166247D01*
X48531693Y-56166247D02*
X48626931Y-56118628D01*
X48626931Y-56118628D02*
X48674550Y-56023390D01*
X48674550Y-56023390D02*
X48674550Y-55499580D01*
X45531693Y-57023580D02*
X44960265Y-57023580D01*
X45245979Y-57023580D02*
X45245979Y-58023580D01*
X45245979Y-58023580D02*
X45150741Y-57880723D01*
X45150741Y-57880723D02*
X45055503Y-57785485D01*
X45055503Y-57785485D02*
X44960265Y-57737866D01*
X45912646Y-57928342D02*
X45960265Y-57975961D01*
X45960265Y-57975961D02*
X46055503Y-58023580D01*
X46055503Y-58023580D02*
X46293598Y-58023580D01*
X46293598Y-58023580D02*
X46388836Y-57975961D01*
X46388836Y-57975961D02*
X46436455Y-57928342D01*
X46436455Y-57928342D02*
X46484074Y-57833104D01*
X46484074Y-57833104D02*
X46484074Y-57737866D01*
X46484074Y-57737866D02*
X46436455Y-57595009D01*
X46436455Y-57595009D02*
X45865027Y-57023580D01*
X45865027Y-57023580D02*
X46484074Y-57023580D01*
X46769789Y-58023580D02*
X47103122Y-57023580D01*
X47103122Y-57023580D02*
X47436455Y-58023580D01*
X47912646Y-57023580D02*
X47817408Y-57071200D01*
X47817408Y-57071200D02*
X47769789Y-57118819D01*
X47769789Y-57118819D02*
X47722170Y-57214057D01*
X47722170Y-57214057D02*
X47722170Y-57499771D01*
X47722170Y-57499771D02*
X47769789Y-57595009D01*
X47769789Y-57595009D02*
X47817408Y-57642628D01*
X47817408Y-57642628D02*
X47912646Y-57690247D01*
X47912646Y-57690247D02*
X48055503Y-57690247D01*
X48055503Y-57690247D02*
X48150741Y-57642628D01*
X48150741Y-57642628D02*
X48198360Y-57595009D01*
X48198360Y-57595009D02*
X48245979Y-57499771D01*
X48245979Y-57499771D02*
X48245979Y-57214057D01*
X48245979Y-57214057D02*
X48198360Y-57118819D01*
X48198360Y-57118819D02*
X48150741Y-57071200D01*
X48150741Y-57071200D02*
X48055503Y-57023580D01*
X48055503Y-57023580D02*
X47912646Y-57023580D01*
X49103122Y-57690247D02*
X49103122Y-57023580D01*
X48674551Y-57690247D02*
X48674551Y-57166438D01*
X48674551Y-57166438D02*
X48722170Y-57071200D01*
X48722170Y-57071200D02*
X48817408Y-57023580D01*
X48817408Y-57023580D02*
X48960265Y-57023580D01*
X48960265Y-57023580D02*
X49055503Y-57071200D01*
X49055503Y-57071200D02*
X49103122Y-57118819D01*
X49436456Y-57690247D02*
X49817408Y-57690247D01*
X49579313Y-58023580D02*
X49579313Y-57166438D01*
X49579313Y-57166438D02*
X49626932Y-57071200D01*
X49626932Y-57071200D02*
X49722170Y-57023580D01*
X49722170Y-57023580D02*
X49817408Y-57023580D01*
X45531693Y-63055961D02*
X45436455Y-63103580D01*
X45436455Y-63103580D02*
X45293598Y-63103580D01*
X45293598Y-63103580D02*
X45150741Y-63055961D01*
X45150741Y-63055961D02*
X45055503Y-62960723D01*
X45055503Y-62960723D02*
X45007884Y-62865485D01*
X45007884Y-62865485D02*
X44960265Y-62675009D01*
X44960265Y-62675009D02*
X44960265Y-62532152D01*
X44960265Y-62532152D02*
X45007884Y-62341676D01*
X45007884Y-62341676D02*
X45055503Y-62246438D01*
X45055503Y-62246438D02*
X45150741Y-62151200D01*
X45150741Y-62151200D02*
X45293598Y-62103580D01*
X45293598Y-62103580D02*
X45388836Y-62103580D01*
X45388836Y-62103580D02*
X45531693Y-62151200D01*
X45531693Y-62151200D02*
X45579312Y-62198819D01*
X45579312Y-62198819D02*
X45579312Y-62532152D01*
X45579312Y-62532152D02*
X45388836Y-62532152D01*
X46007884Y-62103580D02*
X46007884Y-63103580D01*
X46007884Y-63103580D02*
X46579312Y-62103580D01*
X46579312Y-62103580D02*
X46579312Y-63103580D01*
X47055503Y-62103580D02*
X47055503Y-63103580D01*
X47055503Y-63103580D02*
X47293598Y-63103580D01*
X47293598Y-63103580D02*
X47436455Y-63055961D01*
X47436455Y-63055961D02*
X47531693Y-62960723D01*
X47531693Y-62960723D02*
X47579312Y-62865485D01*
X47579312Y-62865485D02*
X47626931Y-62675009D01*
X47626931Y-62675009D02*
X47626931Y-62532152D01*
X47626931Y-62532152D02*
X47579312Y-62341676D01*
X47579312Y-62341676D02*
X47531693Y-62246438D01*
X47531693Y-62246438D02*
X47436455Y-62151200D01*
X47436455Y-62151200D02*
X47293598Y-62103580D01*
X47293598Y-62103580D02*
X47055503Y-62103580D01*
X47500265Y-42593200D02*
X47643122Y-42545580D01*
X47643122Y-42545580D02*
X47881217Y-42545580D01*
X47881217Y-42545580D02*
X47976455Y-42593200D01*
X47976455Y-42593200D02*
X48024074Y-42640819D01*
X48024074Y-42640819D02*
X48071693Y-42736057D01*
X48071693Y-42736057D02*
X48071693Y-42831295D01*
X48071693Y-42831295D02*
X48024074Y-42926533D01*
X48024074Y-42926533D02*
X47976455Y-42974152D01*
X47976455Y-42974152D02*
X47881217Y-43021771D01*
X47881217Y-43021771D02*
X47690741Y-43069390D01*
X47690741Y-43069390D02*
X47595503Y-43117009D01*
X47595503Y-43117009D02*
X47547884Y-43164628D01*
X47547884Y-43164628D02*
X47500265Y-43259866D01*
X47500265Y-43259866D02*
X47500265Y-43355104D01*
X47500265Y-43355104D02*
X47547884Y-43450342D01*
X47547884Y-43450342D02*
X47595503Y-43497961D01*
X47595503Y-43497961D02*
X47690741Y-43545580D01*
X47690741Y-43545580D02*
X47928836Y-43545580D01*
X47928836Y-43545580D02*
X48071693Y-43497961D01*
X48405027Y-43212247D02*
X48595503Y-42545580D01*
X48595503Y-42545580D02*
X48785979Y-43021771D01*
X48785979Y-43021771D02*
X48976455Y-42545580D01*
X48976455Y-42545580D02*
X49166931Y-43212247D01*
X50119312Y-42545580D02*
X49785979Y-43021771D01*
X49547884Y-42545580D02*
X49547884Y-43545580D01*
X49547884Y-43545580D02*
X49928836Y-43545580D01*
X49928836Y-43545580D02*
X50024074Y-43497961D01*
X50024074Y-43497961D02*
X50071693Y-43450342D01*
X50071693Y-43450342D02*
X50119312Y-43355104D01*
X50119312Y-43355104D02*
X50119312Y-43212247D01*
X50119312Y-43212247D02*
X50071693Y-43117009D01*
X50071693Y-43117009D02*
X50024074Y-43069390D01*
X50024074Y-43069390D02*
X49928836Y-43021771D01*
X49928836Y-43021771D02*
X49547884Y-43021771D01*
X50802265Y-43609200D02*
X50945122Y-43561580D01*
X50945122Y-43561580D02*
X51183217Y-43561580D01*
X51183217Y-43561580D02*
X51278455Y-43609200D01*
X51278455Y-43609200D02*
X51326074Y-43656819D01*
X51326074Y-43656819D02*
X51373693Y-43752057D01*
X51373693Y-43752057D02*
X51373693Y-43847295D01*
X51373693Y-43847295D02*
X51326074Y-43942533D01*
X51326074Y-43942533D02*
X51278455Y-43990152D01*
X51278455Y-43990152D02*
X51183217Y-44037771D01*
X51183217Y-44037771D02*
X50992741Y-44085390D01*
X50992741Y-44085390D02*
X50897503Y-44133009D01*
X50897503Y-44133009D02*
X50849884Y-44180628D01*
X50849884Y-44180628D02*
X50802265Y-44275866D01*
X50802265Y-44275866D02*
X50802265Y-44371104D01*
X50802265Y-44371104D02*
X50849884Y-44466342D01*
X50849884Y-44466342D02*
X50897503Y-44513961D01*
X50897503Y-44513961D02*
X50992741Y-44561580D01*
X50992741Y-44561580D02*
X51230836Y-44561580D01*
X51230836Y-44561580D02*
X51373693Y-44513961D01*
X51707027Y-44228247D02*
X51897503Y-43561580D01*
X51897503Y-43561580D02*
X52087979Y-44037771D01*
X52087979Y-44037771D02*
X52278455Y-43561580D01*
X52278455Y-43561580D02*
X52468931Y-44228247D01*
X53183217Y-44085390D02*
X52849884Y-44085390D01*
X52849884Y-43561580D02*
X52849884Y-44561580D01*
X52849884Y-44561580D02*
X53326074Y-44561580D01*
X64391217Y-43069390D02*
X64057884Y-43069390D01*
X64057884Y-42545580D02*
X64057884Y-43545580D01*
X64057884Y-43545580D02*
X64534074Y-43545580D01*
X73265312Y-42545580D02*
X72931979Y-43021771D01*
X72693884Y-42545580D02*
X72693884Y-43545580D01*
X72693884Y-43545580D02*
X73074836Y-43545580D01*
X73074836Y-43545580D02*
X73170074Y-43497961D01*
X73170074Y-43497961D02*
X73217693Y-43450342D01*
X73217693Y-43450342D02*
X73265312Y-43355104D01*
X73265312Y-43355104D02*
X73265312Y-43212247D01*
X73265312Y-43212247D02*
X73217693Y-43117009D01*
X73217693Y-43117009D02*
X73170074Y-43069390D01*
X73170074Y-43069390D02*
X73074836Y-43021771D01*
X73074836Y-43021771D02*
X72693884Y-43021771D01*
X44259961Y-41082306D02*
X44307580Y-41177544D01*
X44307580Y-41177544D02*
X44307580Y-41320401D01*
X44307580Y-41320401D02*
X44259961Y-41463258D01*
X44259961Y-41463258D02*
X44164723Y-41558496D01*
X44164723Y-41558496D02*
X44069485Y-41606115D01*
X44069485Y-41606115D02*
X43879009Y-41653734D01*
X43879009Y-41653734D02*
X43736152Y-41653734D01*
X43736152Y-41653734D02*
X43545676Y-41606115D01*
X43545676Y-41606115D02*
X43450438Y-41558496D01*
X43450438Y-41558496D02*
X43355200Y-41463258D01*
X43355200Y-41463258D02*
X43307580Y-41320401D01*
X43307580Y-41320401D02*
X43307580Y-41225163D01*
X43307580Y-41225163D02*
X43355200Y-41082306D01*
X43355200Y-41082306D02*
X43402819Y-41034687D01*
X43402819Y-41034687D02*
X43736152Y-41034687D01*
X43736152Y-41034687D02*
X43736152Y-41225163D01*
X43307580Y-40606115D02*
X44307580Y-40606115D01*
X44307580Y-40606115D02*
X43307580Y-40034687D01*
X43307580Y-40034687D02*
X44307580Y-40034687D01*
X43307580Y-39558496D02*
X44307580Y-39558496D01*
X44307580Y-39558496D02*
X44307580Y-39320401D01*
X44307580Y-39320401D02*
X44259961Y-39177544D01*
X44259961Y-39177544D02*
X44164723Y-39082306D01*
X44164723Y-39082306D02*
X44069485Y-39034687D01*
X44069485Y-39034687D02*
X43879009Y-38987068D01*
X43879009Y-38987068D02*
X43736152Y-38987068D01*
X43736152Y-38987068D02*
X43545676Y-39034687D01*
X43545676Y-39034687D02*
X43450438Y-39082306D01*
X43450438Y-39082306D02*
X43355200Y-39177544D01*
X43355200Y-39177544D02*
X43307580Y-39320401D01*
X43307580Y-39320401D02*
X43307580Y-39558496D01*
D11*
X63499904Y-52667819D02*
X63499904Y-53477342D01*
X63499904Y-53477342D02*
X63452285Y-53572580D01*
X63452285Y-53572580D02*
X63404666Y-53620200D01*
X63404666Y-53620200D02*
X63309428Y-53667819D01*
X63309428Y-53667819D02*
X63118952Y-53667819D01*
X63118952Y-53667819D02*
X63023714Y-53620200D01*
X63023714Y-53620200D02*
X62976095Y-53572580D01*
X62976095Y-53572580D02*
X62928476Y-53477342D01*
X62928476Y-53477342D02*
X62928476Y-52667819D01*
X61928476Y-53667819D02*
X62499904Y-53667819D01*
X62214190Y-53667819D02*
X62214190Y-52667819D01*
X62214190Y-52667819D02*
X62309428Y-52810676D01*
X62309428Y-52810676D02*
X62404666Y-52905914D01*
X62404666Y-52905914D02*
X62499904Y-52953533D01*
X76104819Y-59300905D02*
X75104819Y-59300905D01*
X75104819Y-59300905D02*
X75104819Y-59539000D01*
X75104819Y-59539000D02*
X75152438Y-59681857D01*
X75152438Y-59681857D02*
X75247676Y-59777095D01*
X75247676Y-59777095D02*
X75342914Y-59824714D01*
X75342914Y-59824714D02*
X75533390Y-59872333D01*
X75533390Y-59872333D02*
X75676247Y-59872333D01*
X75676247Y-59872333D02*
X75866723Y-59824714D01*
X75866723Y-59824714D02*
X75961961Y-59777095D01*
X75961961Y-59777095D02*
X76057200Y-59681857D01*
X76057200Y-59681857D02*
X76104819Y-59539000D01*
X76104819Y-59539000D02*
X76104819Y-59300905D01*
X75104819Y-60205667D02*
X75104819Y-60824714D01*
X75104819Y-60824714D02*
X75485771Y-60491381D01*
X75485771Y-60491381D02*
X75485771Y-60634238D01*
X75485771Y-60634238D02*
X75533390Y-60729476D01*
X75533390Y-60729476D02*
X75581009Y-60777095D01*
X75581009Y-60777095D02*
X75676247Y-60824714D01*
X75676247Y-60824714D02*
X75914342Y-60824714D01*
X75914342Y-60824714D02*
X76009580Y-60777095D01*
X76009580Y-60777095D02*
X76057200Y-60729476D01*
X76057200Y-60729476D02*
X76104819Y-60634238D01*
X76104819Y-60634238D02*
X76104819Y-60348524D01*
X76104819Y-60348524D02*
X76057200Y-60253286D01*
X76057200Y-60253286D02*
X76009580Y-60205667D01*
X59128819Y-47521905D02*
X58128819Y-47521905D01*
X58128819Y-47521905D02*
X58128819Y-47760000D01*
X58128819Y-47760000D02*
X58176438Y-47902857D01*
X58176438Y-47902857D02*
X58271676Y-47998095D01*
X58271676Y-47998095D02*
X58366914Y-48045714D01*
X58366914Y-48045714D02*
X58557390Y-48093333D01*
X58557390Y-48093333D02*
X58700247Y-48093333D01*
X58700247Y-48093333D02*
X58890723Y-48045714D01*
X58890723Y-48045714D02*
X58985961Y-47998095D01*
X58985961Y-47998095D02*
X59081200Y-47902857D01*
X59081200Y-47902857D02*
X59128819Y-47760000D01*
X59128819Y-47760000D02*
X59128819Y-47521905D01*
X59128819Y-49045714D02*
X59128819Y-48474286D01*
X59128819Y-48760000D02*
X58128819Y-48760000D01*
X58128819Y-48760000D02*
X58271676Y-48664762D01*
X58271676Y-48664762D02*
X58366914Y-48569524D01*
X58366914Y-48569524D02*
X58414533Y-48474286D01*
X68746666Y-50905580D02*
X68794285Y-50953200D01*
X68794285Y-50953200D02*
X68937142Y-51000819D01*
X68937142Y-51000819D02*
X69032380Y-51000819D01*
X69032380Y-51000819D02*
X69175237Y-50953200D01*
X69175237Y-50953200D02*
X69270475Y-50857961D01*
X69270475Y-50857961D02*
X69318094Y-50762723D01*
X69318094Y-50762723D02*
X69365713Y-50572247D01*
X69365713Y-50572247D02*
X69365713Y-50429390D01*
X69365713Y-50429390D02*
X69318094Y-50238914D01*
X69318094Y-50238914D02*
X69270475Y-50143676D01*
X69270475Y-50143676D02*
X69175237Y-50048438D01*
X69175237Y-50048438D02*
X69032380Y-50000819D01*
X69032380Y-50000819D02*
X68937142Y-50000819D01*
X68937142Y-50000819D02*
X68794285Y-50048438D01*
X68794285Y-50048438D02*
X68746666Y-50096057D01*
X68365713Y-50096057D02*
X68318094Y-50048438D01*
X68318094Y-50048438D02*
X68222856Y-50000819D01*
X68222856Y-50000819D02*
X67984761Y-50000819D01*
X67984761Y-50000819D02*
X67889523Y-50048438D01*
X67889523Y-50048438D02*
X67841904Y-50096057D01*
X67841904Y-50096057D02*
X67794285Y-50191295D01*
X67794285Y-50191295D02*
X67794285Y-50286533D01*
X67794285Y-50286533D02*
X67841904Y-50429390D01*
X67841904Y-50429390D02*
X68413332Y-51000819D01*
X68413332Y-51000819D02*
X67794285Y-51000819D01*
X74683819Y-49276095D02*
X75493342Y-49276095D01*
X75493342Y-49276095D02*
X75588580Y-49323714D01*
X75588580Y-49323714D02*
X75636200Y-49371333D01*
X75636200Y-49371333D02*
X75683819Y-49466571D01*
X75683819Y-49466571D02*
X75683819Y-49657047D01*
X75683819Y-49657047D02*
X75636200Y-49752285D01*
X75636200Y-49752285D02*
X75588580Y-49799904D01*
X75588580Y-49799904D02*
X75493342Y-49847523D01*
X75493342Y-49847523D02*
X74683819Y-49847523D01*
X74683819Y-50228476D02*
X74683819Y-50847523D01*
X74683819Y-50847523D02*
X75064771Y-50514190D01*
X75064771Y-50514190D02*
X75064771Y-50657047D01*
X75064771Y-50657047D02*
X75112390Y-50752285D01*
X75112390Y-50752285D02*
X75160009Y-50799904D01*
X75160009Y-50799904D02*
X75255247Y-50847523D01*
X75255247Y-50847523D02*
X75493342Y-50847523D01*
X75493342Y-50847523D02*
X75588580Y-50799904D01*
X75588580Y-50799904D02*
X75636200Y-50752285D01*
X75636200Y-50752285D02*
X75683819Y-50657047D01*
X75683819Y-50657047D02*
X75683819Y-50371333D01*
X75683819Y-50371333D02*
X75636200Y-50276095D01*
X75636200Y-50276095D02*
X75588580Y-50228476D01*
X62142666Y-60906819D02*
X62475999Y-60430628D01*
X62714094Y-60906819D02*
X62714094Y-59906819D01*
X62714094Y-59906819D02*
X62333142Y-59906819D01*
X62333142Y-59906819D02*
X62237904Y-59954438D01*
X62237904Y-59954438D02*
X62190285Y-60002057D01*
X62190285Y-60002057D02*
X62142666Y-60097295D01*
X62142666Y-60097295D02*
X62142666Y-60240152D01*
X62142666Y-60240152D02*
X62190285Y-60335390D01*
X62190285Y-60335390D02*
X62237904Y-60383009D01*
X62237904Y-60383009D02*
X62333142Y-60430628D01*
X62333142Y-60430628D02*
X62714094Y-60430628D01*
X61237904Y-59906819D02*
X61714094Y-59906819D01*
X61714094Y-59906819D02*
X61761713Y-60383009D01*
X61761713Y-60383009D02*
X61714094Y-60335390D01*
X61714094Y-60335390D02*
X61618856Y-60287771D01*
X61618856Y-60287771D02*
X61380761Y-60287771D01*
X61380761Y-60287771D02*
X61285523Y-60335390D01*
X61285523Y-60335390D02*
X61237904Y-60383009D01*
X61237904Y-60383009D02*
X61190285Y-60478247D01*
X61190285Y-60478247D02*
X61190285Y-60716342D01*
X61190285Y-60716342D02*
X61237904Y-60811580D01*
X61237904Y-60811580D02*
X61285523Y-60859200D01*
X61285523Y-60859200D02*
X61380761Y-60906819D01*
X61380761Y-60906819D02*
X61618856Y-60906819D01*
X61618856Y-60906819D02*
X61714094Y-60859200D01*
X61714094Y-60859200D02*
X61761713Y-60811580D01*
X63729666Y-59255819D02*
X64062999Y-58779628D01*
X64301094Y-59255819D02*
X64301094Y-58255819D01*
X64301094Y-58255819D02*
X63920142Y-58255819D01*
X63920142Y-58255819D02*
X63824904Y-58303438D01*
X63824904Y-58303438D02*
X63777285Y-58351057D01*
X63777285Y-58351057D02*
X63729666Y-58446295D01*
X63729666Y-58446295D02*
X63729666Y-58589152D01*
X63729666Y-58589152D02*
X63777285Y-58684390D01*
X63777285Y-58684390D02*
X63824904Y-58732009D01*
X63824904Y-58732009D02*
X63920142Y-58779628D01*
X63920142Y-58779628D02*
X64301094Y-58779628D01*
X62872523Y-58589152D02*
X62872523Y-59255819D01*
X63110618Y-58208200D02*
X63348713Y-58922485D01*
X63348713Y-58922485D02*
X62729666Y-58922485D01*
X62079666Y-57731819D02*
X62412999Y-57255628D01*
X62651094Y-57731819D02*
X62651094Y-56731819D01*
X62651094Y-56731819D02*
X62270142Y-56731819D01*
X62270142Y-56731819D02*
X62174904Y-56779438D01*
X62174904Y-56779438D02*
X62127285Y-56827057D01*
X62127285Y-56827057D02*
X62079666Y-56922295D01*
X62079666Y-56922295D02*
X62079666Y-57065152D01*
X62079666Y-57065152D02*
X62127285Y-57160390D01*
X62127285Y-57160390D02*
X62174904Y-57208009D01*
X62174904Y-57208009D02*
X62270142Y-57255628D01*
X62270142Y-57255628D02*
X62651094Y-57255628D01*
X61127285Y-57731819D02*
X61698713Y-57731819D01*
X61412999Y-57731819D02*
X61412999Y-56731819D01*
X61412999Y-56731819D02*
X61508237Y-56874676D01*
X61508237Y-56874676D02*
X61603475Y-56969914D01*
X61603475Y-56969914D02*
X61698713Y-57017533D01*
X72548819Y-59300905D02*
X71548819Y-59300905D01*
X71548819Y-59300905D02*
X71548819Y-59539000D01*
X71548819Y-59539000D02*
X71596438Y-59681857D01*
X71596438Y-59681857D02*
X71691676Y-59777095D01*
X71691676Y-59777095D02*
X71786914Y-59824714D01*
X71786914Y-59824714D02*
X71977390Y-59872333D01*
X71977390Y-59872333D02*
X72120247Y-59872333D01*
X72120247Y-59872333D02*
X72310723Y-59824714D01*
X72310723Y-59824714D02*
X72405961Y-59777095D01*
X72405961Y-59777095D02*
X72501200Y-59681857D01*
X72501200Y-59681857D02*
X72548819Y-59539000D01*
X72548819Y-59539000D02*
X72548819Y-59300905D01*
X71644057Y-60253286D02*
X71596438Y-60300905D01*
X71596438Y-60300905D02*
X71548819Y-60396143D01*
X71548819Y-60396143D02*
X71548819Y-60634238D01*
X71548819Y-60634238D02*
X71596438Y-60729476D01*
X71596438Y-60729476D02*
X71644057Y-60777095D01*
X71644057Y-60777095D02*
X71739295Y-60824714D01*
X71739295Y-60824714D02*
X71834533Y-60824714D01*
X71834533Y-60824714D02*
X71977390Y-60777095D01*
X71977390Y-60777095D02*
X72548819Y-60205667D01*
X72548819Y-60205667D02*
X72548819Y-60824714D01*
X71156819Y-49238595D02*
X71966342Y-49238595D01*
X71966342Y-49238595D02*
X72061580Y-49286214D01*
X72061580Y-49286214D02*
X72109200Y-49333833D01*
X72109200Y-49333833D02*
X72156819Y-49429071D01*
X72156819Y-49429071D02*
X72156819Y-49619547D01*
X72156819Y-49619547D02*
X72109200Y-49714785D01*
X72109200Y-49714785D02*
X72061580Y-49762404D01*
X72061580Y-49762404D02*
X71966342Y-49810023D01*
X71966342Y-49810023D02*
X71156819Y-49810023D01*
X71252057Y-50238595D02*
X71204438Y-50286214D01*
X71204438Y-50286214D02*
X71156819Y-50381452D01*
X71156819Y-50381452D02*
X71156819Y-50619547D01*
X71156819Y-50619547D02*
X71204438Y-50714785D01*
X71204438Y-50714785D02*
X71252057Y-50762404D01*
X71252057Y-50762404D02*
X71347295Y-50810023D01*
X71347295Y-50810023D02*
X71442533Y-50810023D01*
X71442533Y-50810023D02*
X71585390Y-50762404D01*
X71585390Y-50762404D02*
X72156819Y-50190976D01*
X72156819Y-50190976D02*
X72156819Y-50810023D01*
X67923580Y-56983333D02*
X67971200Y-56935714D01*
X67971200Y-56935714D02*
X68018819Y-56792857D01*
X68018819Y-56792857D02*
X68018819Y-56697619D01*
X68018819Y-56697619D02*
X67971200Y-56554762D01*
X67971200Y-56554762D02*
X67875961Y-56459524D01*
X67875961Y-56459524D02*
X67780723Y-56411905D01*
X67780723Y-56411905D02*
X67590247Y-56364286D01*
X67590247Y-56364286D02*
X67447390Y-56364286D01*
X67447390Y-56364286D02*
X67256914Y-56411905D01*
X67256914Y-56411905D02*
X67161676Y-56459524D01*
X67161676Y-56459524D02*
X67066438Y-56554762D01*
X67066438Y-56554762D02*
X67018819Y-56697619D01*
X67018819Y-56697619D02*
X67018819Y-56792857D01*
X67018819Y-56792857D02*
X67066438Y-56935714D01*
X67066438Y-56935714D02*
X67114057Y-56983333D01*
X67018819Y-57888095D02*
X67018819Y-57411905D01*
X67018819Y-57411905D02*
X67495009Y-57364286D01*
X67495009Y-57364286D02*
X67447390Y-57411905D01*
X67447390Y-57411905D02*
X67399771Y-57507143D01*
X67399771Y-57507143D02*
X67399771Y-57745238D01*
X67399771Y-57745238D02*
X67447390Y-57840476D01*
X67447390Y-57840476D02*
X67495009Y-57888095D01*
X67495009Y-57888095D02*
X67590247Y-57935714D01*
X67590247Y-57935714D02*
X67828342Y-57935714D01*
X67828342Y-57935714D02*
X67923580Y-57888095D01*
X67923580Y-57888095D02*
X67971200Y-57840476D01*
X67971200Y-57840476D02*
X68018819Y-57745238D01*
X68018819Y-57745238D02*
X68018819Y-57507143D01*
X68018819Y-57507143D02*
X67971200Y-57411905D01*
X67971200Y-57411905D02*
X67923580Y-57364286D01*
X56991238Y-63288057D02*
X57086476Y-63240438D01*
X57086476Y-63240438D02*
X57181714Y-63145200D01*
X57181714Y-63145200D02*
X57324571Y-63002342D01*
X57324571Y-63002342D02*
X57419809Y-62954723D01*
X57419809Y-62954723D02*
X57515047Y-62954723D01*
X57467428Y-63192819D02*
X57562666Y-63145200D01*
X57562666Y-63145200D02*
X57657904Y-63049961D01*
X57657904Y-63049961D02*
X57705523Y-62859485D01*
X57705523Y-62859485D02*
X57705523Y-62526152D01*
X57705523Y-62526152D02*
X57657904Y-62335676D01*
X57657904Y-62335676D02*
X57562666Y-62240438D01*
X57562666Y-62240438D02*
X57467428Y-62192819D01*
X57467428Y-62192819D02*
X57276952Y-62192819D01*
X57276952Y-62192819D02*
X57181714Y-62240438D01*
X57181714Y-62240438D02*
X57086476Y-62335676D01*
X57086476Y-62335676D02*
X57038857Y-62526152D01*
X57038857Y-62526152D02*
X57038857Y-62859485D01*
X57038857Y-62859485D02*
X57086476Y-63049961D01*
X57086476Y-63049961D02*
X57181714Y-63145200D01*
X57181714Y-63145200D02*
X57276952Y-63192819D01*
X57276952Y-63192819D02*
X57467428Y-63192819D01*
X56086476Y-63192819D02*
X56657904Y-63192819D01*
X56372190Y-63192819D02*
X56372190Y-62192819D01*
X56372190Y-62192819D02*
X56467428Y-62335676D01*
X56467428Y-62335676D02*
X56562666Y-62430914D01*
X56562666Y-62430914D02*
X56657904Y-62478533D01*
X69447580Y-56983333D02*
X69495200Y-56935714D01*
X69495200Y-56935714D02*
X69542819Y-56792857D01*
X69542819Y-56792857D02*
X69542819Y-56697619D01*
X69542819Y-56697619D02*
X69495200Y-56554762D01*
X69495200Y-56554762D02*
X69399961Y-56459524D01*
X69399961Y-56459524D02*
X69304723Y-56411905D01*
X69304723Y-56411905D02*
X69114247Y-56364286D01*
X69114247Y-56364286D02*
X68971390Y-56364286D01*
X68971390Y-56364286D02*
X68780914Y-56411905D01*
X68780914Y-56411905D02*
X68685676Y-56459524D01*
X68685676Y-56459524D02*
X68590438Y-56554762D01*
X68590438Y-56554762D02*
X68542819Y-56697619D01*
X68542819Y-56697619D02*
X68542819Y-56792857D01*
X68542819Y-56792857D02*
X68590438Y-56935714D01*
X68590438Y-56935714D02*
X68638057Y-56983333D01*
X68542819Y-57840476D02*
X68542819Y-57650000D01*
X68542819Y-57650000D02*
X68590438Y-57554762D01*
X68590438Y-57554762D02*
X68638057Y-57507143D01*
X68638057Y-57507143D02*
X68780914Y-57411905D01*
X68780914Y-57411905D02*
X68971390Y-57364286D01*
X68971390Y-57364286D02*
X69352342Y-57364286D01*
X69352342Y-57364286D02*
X69447580Y-57411905D01*
X69447580Y-57411905D02*
X69495200Y-57459524D01*
X69495200Y-57459524D02*
X69542819Y-57554762D01*
X69542819Y-57554762D02*
X69542819Y-57745238D01*
X69542819Y-57745238D02*
X69495200Y-57840476D01*
X69495200Y-57840476D02*
X69447580Y-57888095D01*
X69447580Y-57888095D02*
X69352342Y-57935714D01*
X69352342Y-57935714D02*
X69114247Y-57935714D01*
X69114247Y-57935714D02*
X69019009Y-57888095D01*
X69019009Y-57888095D02*
X68971390Y-57840476D01*
X68971390Y-57840476D02*
X68923771Y-57745238D01*
X68923771Y-57745238D02*
X68923771Y-57554762D01*
X68923771Y-57554762D02*
X68971390Y-57459524D01*
X68971390Y-57459524D02*
X69019009Y-57411905D01*
X69019009Y-57411905D02*
X69114247Y-57364286D01*
D12*
%TO.C,U1*%
X60678000Y-50653000D02*
X60678000Y-50748000D01*
X60678000Y-55678000D02*
X60678000Y-55773000D01*
X60678000Y-55773000D02*
X64798000Y-55773000D01*
X64798000Y-50653000D02*
X60678000Y-50653000D01*
X64798000Y-50748000D02*
X64798000Y-50653000D01*
X64798000Y-55773000D02*
X64798000Y-55678000D01*
X65338000Y-50743000D02*
X65098000Y-50413000D01*
X65578000Y-50413000D01*
X65338000Y-50743000D01*
G36*
X65338000Y-50743000D02*
G01*
X65098000Y-50413000D01*
X65578000Y-50413000D01*
X65338000Y-50743000D01*
G37*
%TO.C,D3*%
X74040000Y-58977000D02*
X74040000Y-53467000D01*
X77340000Y-58977000D02*
X74040000Y-58977000D01*
X77340000Y-58977000D02*
X77340000Y-53467000D01*
%TO.C,D1*%
X66375000Y-46610000D02*
X60865000Y-46610000D01*
X66375000Y-46610000D02*
X66375000Y-49910000D01*
X66375000Y-49910000D02*
X60865000Y-49910000D01*
%TO.C,C2*%
X68306733Y-51433000D02*
X68599267Y-51433000D01*
X68306733Y-52453000D02*
X68599267Y-52453000D01*
%TO.C,U3*%
X73656000Y-45953000D02*
X73656000Y-47773000D01*
X73656000Y-47773000D02*
X73706000Y-47773000D01*
X73706000Y-45953000D02*
X73656000Y-45953000D01*
X74826000Y-47773000D02*
X75606000Y-47773000D01*
X76726000Y-47773000D02*
X76776000Y-47773000D01*
X76776000Y-45953000D02*
X76726000Y-45953000D01*
X76776000Y-47773000D02*
X76776000Y-45953000D01*
X73706000Y-45413000D02*
X73376000Y-45653000D01*
X73376000Y-45173000D01*
X73706000Y-45413000D01*
G36*
X73706000Y-45413000D02*
G01*
X73376000Y-45653000D01*
X73376000Y-45173000D01*
X73706000Y-45413000D01*
G37*
%TO.C,R5*%
X64690258Y-59802500D02*
X64215742Y-59802500D01*
X64690258Y-60847500D02*
X64215742Y-60847500D01*
%TO.C,R4*%
X66340258Y-58278500D02*
X65865742Y-58278500D01*
X66340258Y-59323500D02*
X65865742Y-59323500D01*
%TO.C,R1*%
X64690258Y-56754500D02*
X64215742Y-56754500D01*
X64690258Y-57799500D02*
X64215742Y-57799500D01*
%TO.C,D2*%
X70484000Y-58977000D02*
X70484000Y-53467000D01*
X73784000Y-58977000D02*
X70484000Y-58977000D01*
X73784000Y-58977000D02*
X73784000Y-53467000D01*
%TO.C,U2*%
X70129000Y-45915500D02*
X70129000Y-47735500D01*
X70129000Y-47735500D02*
X70179000Y-47735500D01*
X70179000Y-45915500D02*
X70129000Y-45915500D01*
X71299000Y-47735500D02*
X72079000Y-47735500D01*
X73199000Y-47735500D02*
X73249000Y-47735500D01*
X73249000Y-45915500D02*
X73199000Y-45915500D01*
X73249000Y-47735500D02*
X73249000Y-45915500D01*
X70179000Y-45375500D02*
X69849000Y-45615500D01*
X69849000Y-45135500D01*
X70179000Y-45375500D01*
G36*
X70179000Y-45375500D02*
G01*
X69849000Y-45615500D01*
X69849000Y-45135500D01*
X70179000Y-45375500D01*
G37*
%TO.C,C5*%
X67054000Y-54602767D02*
X67054000Y-54310233D01*
X68074000Y-54602767D02*
X68074000Y-54310233D01*
%TO.C,Q1*%
X55261000Y-58563000D02*
X55261000Y-58748000D01*
X55261000Y-61648000D02*
X55261000Y-61833000D01*
X58531000Y-58563000D02*
X55261000Y-58563000D01*
X58531000Y-58563000D02*
X58531000Y-58748000D01*
X58531000Y-61648000D02*
X58531000Y-61833000D01*
X58531000Y-61833000D02*
X55261000Y-61833000D01*
X59251000Y-58738000D02*
X58851000Y-58738000D01*
X58851000Y-58338000D01*
X59251000Y-58738000D01*
G36*
X59251000Y-58738000D02*
G01*
X58851000Y-58738000D01*
X58851000Y-58338000D01*
X59251000Y-58738000D01*
G37*
%TO.C,C6*%
X68578000Y-54602767D02*
X68578000Y-54310233D01*
X69598000Y-54602767D02*
X69598000Y-54310233D01*
%TD*%
M02*
