%TF.GenerationSoftware,KiCad,Pcbnew,9.0.8*%
%TF.CreationDate,2026-03-26T16:54:31-04:00*%
%TF.ProjectId,BrakeSwitch,4272616b-6553-4776-9974-63682e6b6963,rev?*%
%TF.SameCoordinates,Original*%
%TF.FileFunction,Legend,Top*%
%TF.FilePolarity,Positive*%
%FSLAX46Y46*%
G04 Gerber Fmt 4.6, Leading zero omitted, Abs format (unit mm)*
G04 Created by KiCad (PCBNEW 9.0.8) date 2026-03-26 16:54:31*
%MOMM*%
%LPD*%
G01*
G04 APERTURE LIST*
%ADD10C,0.100000*%
%ADD11C,0.150000*%
%ADD12C,0.120000*%
G04 APERTURE END LIST*
D10*
X44384306Y-43497961D02*
X44479544Y-43545580D01*
X44479544Y-43545580D02*
X44622401Y-43545580D01*
X44622401Y-43545580D02*
X44765258Y-43497961D01*
X44765258Y-43497961D02*
X44860496Y-43402723D01*
X44860496Y-43402723D02*
X44908115Y-43307485D01*
X44908115Y-43307485D02*
X44955734Y-43117009D01*
X44955734Y-43117009D02*
X44955734Y-42974152D01*
X44955734Y-42974152D02*
X44908115Y-42783676D01*
X44908115Y-42783676D02*
X44860496Y-42688438D01*
X44860496Y-42688438D02*
X44765258Y-42593200D01*
X44765258Y-42593200D02*
X44622401Y-42545580D01*
X44622401Y-42545580D02*
X44527163Y-42545580D01*
X44527163Y-42545580D02*
X44384306Y-42593200D01*
X44384306Y-42593200D02*
X44336687Y-42640819D01*
X44336687Y-42640819D02*
X44336687Y-42974152D01*
X44336687Y-42974152D02*
X44527163Y-42974152D01*
X43908115Y-42545580D02*
X43908115Y-43545580D01*
X43908115Y-43545580D02*
X43336687Y-42545580D01*
X43336687Y-42545580D02*
X43336687Y-43545580D01*
X42860496Y-42545580D02*
X42860496Y-43545580D01*
X42860496Y-43545580D02*
X42622401Y-43545580D01*
X42622401Y-43545580D02*
X42479544Y-43497961D01*
X42479544Y-43497961D02*
X42384306Y-43402723D01*
X42384306Y-43402723D02*
X42336687Y-43307485D01*
X42336687Y-43307485D02*
X42289068Y-43117009D01*
X42289068Y-43117009D02*
X42289068Y-42974152D01*
X42289068Y-42974152D02*
X42336687Y-42783676D01*
X42336687Y-42783676D02*
X42384306Y-42688438D01*
X42384306Y-42688438D02*
X42479544Y-42593200D01*
X42479544Y-42593200D02*
X42622401Y-42545580D01*
X42622401Y-42545580D02*
X42860496Y-42545580D01*
X46717925Y-43545580D02*
X47194115Y-43545580D01*
X47194115Y-43545580D02*
X47241734Y-43069390D01*
X47241734Y-43069390D02*
X47194115Y-43117009D01*
X47194115Y-43117009D02*
X47098877Y-43164628D01*
X47098877Y-43164628D02*
X46860782Y-43164628D01*
X46860782Y-43164628D02*
X46765544Y-43117009D01*
X46765544Y-43117009D02*
X46717925Y-43069390D01*
X46717925Y-43069390D02*
X46670306Y-42974152D01*
X46670306Y-42974152D02*
X46670306Y-42736057D01*
X46670306Y-42736057D02*
X46717925Y-42640819D01*
X46717925Y-42640819D02*
X46765544Y-42593200D01*
X46765544Y-42593200D02*
X46860782Y-42545580D01*
X46860782Y-42545580D02*
X47098877Y-42545580D01*
X47098877Y-42545580D02*
X47194115Y-42593200D01*
X47194115Y-42593200D02*
X47241734Y-42640819D01*
X46384591Y-43545580D02*
X46051258Y-42545580D01*
X46051258Y-42545580D02*
X45717925Y-43545580D01*
X49416687Y-42545580D02*
X49750020Y-43021771D01*
X49988115Y-42545580D02*
X49988115Y-43545580D01*
X49988115Y-43545580D02*
X49607163Y-43545580D01*
X49607163Y-43545580D02*
X49511925Y-43497961D01*
X49511925Y-43497961D02*
X49464306Y-43450342D01*
X49464306Y-43450342D02*
X49416687Y-43355104D01*
X49416687Y-43355104D02*
X49416687Y-43212247D01*
X49416687Y-43212247D02*
X49464306Y-43117009D01*
X49464306Y-43117009D02*
X49511925Y-43069390D01*
X49511925Y-43069390D02*
X49607163Y-43021771D01*
X49607163Y-43021771D02*
X49988115Y-43021771D01*
X52448782Y-43069390D02*
X52782115Y-43069390D01*
X52782115Y-42545580D02*
X52782115Y-43545580D01*
X52782115Y-43545580D02*
X52305925Y-43545580D01*
D11*
X70064333Y-45317580D02*
X70016714Y-45365200D01*
X70016714Y-45365200D02*
X69873857Y-45412819D01*
X69873857Y-45412819D02*
X69778619Y-45412819D01*
X69778619Y-45412819D02*
X69635762Y-45365200D01*
X69635762Y-45365200D02*
X69540524Y-45269961D01*
X69540524Y-45269961D02*
X69492905Y-45174723D01*
X69492905Y-45174723D02*
X69445286Y-44984247D01*
X69445286Y-44984247D02*
X69445286Y-44841390D01*
X69445286Y-44841390D02*
X69492905Y-44650914D01*
X69492905Y-44650914D02*
X69540524Y-44555676D01*
X69540524Y-44555676D02*
X69635762Y-44460438D01*
X69635762Y-44460438D02*
X69778619Y-44412819D01*
X69778619Y-44412819D02*
X69873857Y-44412819D01*
X69873857Y-44412819D02*
X70016714Y-44460438D01*
X70016714Y-44460438D02*
X70064333Y-44508057D01*
X70397667Y-44412819D02*
X71016714Y-44412819D01*
X71016714Y-44412819D02*
X70683381Y-44793771D01*
X70683381Y-44793771D02*
X70826238Y-44793771D01*
X70826238Y-44793771D02*
X70921476Y-44841390D01*
X70921476Y-44841390D02*
X70969095Y-44889009D01*
X70969095Y-44889009D02*
X71016714Y-44984247D01*
X71016714Y-44984247D02*
X71016714Y-45222342D01*
X71016714Y-45222342D02*
X70969095Y-45317580D01*
X70969095Y-45317580D02*
X70921476Y-45365200D01*
X70921476Y-45365200D02*
X70826238Y-45412819D01*
X70826238Y-45412819D02*
X70540524Y-45412819D01*
X70540524Y-45412819D02*
X70445286Y-45365200D01*
X70445286Y-45365200D02*
X70397667Y-45317580D01*
X59937217Y-57316666D02*
X59984837Y-57364285D01*
X59984837Y-57364285D02*
X60032456Y-57507142D01*
X60032456Y-57507142D02*
X60032456Y-57602380D01*
X60032456Y-57602380D02*
X59984837Y-57745237D01*
X59984837Y-57745237D02*
X59889598Y-57840475D01*
X59889598Y-57840475D02*
X59794360Y-57888094D01*
X59794360Y-57888094D02*
X59603884Y-57935713D01*
X59603884Y-57935713D02*
X59461027Y-57935713D01*
X59461027Y-57935713D02*
X59270551Y-57888094D01*
X59270551Y-57888094D02*
X59175313Y-57840475D01*
X59175313Y-57840475D02*
X59080075Y-57745237D01*
X59080075Y-57745237D02*
X59032456Y-57602380D01*
X59032456Y-57602380D02*
X59032456Y-57507142D01*
X59032456Y-57507142D02*
X59080075Y-57364285D01*
X59080075Y-57364285D02*
X59127694Y-57316666D01*
X59365789Y-56459523D02*
X60032456Y-56459523D01*
X58984837Y-56697618D02*
X59699122Y-56935713D01*
X59699122Y-56935713D02*
X59699122Y-56316666D01*
X59945617Y-44616666D02*
X59993237Y-44664285D01*
X59993237Y-44664285D02*
X60040856Y-44807142D01*
X60040856Y-44807142D02*
X60040856Y-44902380D01*
X60040856Y-44902380D02*
X59993237Y-45045237D01*
X59993237Y-45045237D02*
X59897998Y-45140475D01*
X59897998Y-45140475D02*
X59802760Y-45188094D01*
X59802760Y-45188094D02*
X59612284Y-45235713D01*
X59612284Y-45235713D02*
X59469427Y-45235713D01*
X59469427Y-45235713D02*
X59278951Y-45188094D01*
X59278951Y-45188094D02*
X59183713Y-45140475D01*
X59183713Y-45140475D02*
X59088475Y-45045237D01*
X59088475Y-45045237D02*
X59040856Y-44902380D01*
X59040856Y-44902380D02*
X59040856Y-44807142D01*
X59040856Y-44807142D02*
X59088475Y-44664285D01*
X59088475Y-44664285D02*
X59136094Y-44616666D01*
X60040856Y-43664285D02*
X60040856Y-44235713D01*
X60040856Y-43949999D02*
X59040856Y-43949999D01*
X59040856Y-43949999D02*
X59183713Y-44045237D01*
X59183713Y-44045237D02*
X59278951Y-44140475D01*
X59278951Y-44140475D02*
X59326570Y-44235713D01*
X80557761Y-47017819D02*
X80224428Y-46541628D01*
X79986333Y-47017819D02*
X79986333Y-46017819D01*
X79986333Y-46017819D02*
X80367285Y-46017819D01*
X80367285Y-46017819D02*
X80462523Y-46065438D01*
X80462523Y-46065438D02*
X80510142Y-46113057D01*
X80510142Y-46113057D02*
X80557761Y-46208295D01*
X80557761Y-46208295D02*
X80557761Y-46351152D01*
X80557761Y-46351152D02*
X80510142Y-46446390D01*
X80510142Y-46446390D02*
X80462523Y-46494009D01*
X80462523Y-46494009D02*
X80367285Y-46541628D01*
X80367285Y-46541628D02*
X79986333Y-46541628D01*
X80843476Y-46017819D02*
X81176809Y-47017819D01*
X81176809Y-47017819D02*
X81510142Y-46017819D01*
X82367285Y-47017819D02*
X81795857Y-47017819D01*
X82081571Y-47017819D02*
X82081571Y-46017819D01*
X82081571Y-46017819D02*
X81986333Y-46160676D01*
X81986333Y-46160676D02*
X81891095Y-46255914D01*
X81891095Y-46255914D02*
X81795857Y-46303533D01*
X74590019Y-56578566D02*
X74590019Y-57054756D01*
X74590019Y-57054756D02*
X73590019Y-57054756D01*
X74590019Y-55721423D02*
X74590019Y-56292851D01*
X74590019Y-56007137D02*
X73590019Y-56007137D01*
X73590019Y-56007137D02*
X73732876Y-56102375D01*
X73732876Y-56102375D02*
X73828114Y-56197613D01*
X73828114Y-56197613D02*
X73875733Y-56292851D01*
X80557761Y-55445819D02*
X80224428Y-54969628D01*
X79986333Y-55445819D02*
X79986333Y-54445819D01*
X79986333Y-54445819D02*
X80367285Y-54445819D01*
X80367285Y-54445819D02*
X80462523Y-54493438D01*
X80462523Y-54493438D02*
X80510142Y-54541057D01*
X80510142Y-54541057D02*
X80557761Y-54636295D01*
X80557761Y-54636295D02*
X80557761Y-54779152D01*
X80557761Y-54779152D02*
X80510142Y-54874390D01*
X80510142Y-54874390D02*
X80462523Y-54922009D01*
X80462523Y-54922009D02*
X80367285Y-54969628D01*
X80367285Y-54969628D02*
X79986333Y-54969628D01*
X80843476Y-54445819D02*
X81176809Y-55445819D01*
X81176809Y-55445819D02*
X81510142Y-54445819D01*
X81795857Y-54541057D02*
X81843476Y-54493438D01*
X81843476Y-54493438D02*
X81938714Y-54445819D01*
X81938714Y-54445819D02*
X82176809Y-54445819D01*
X82176809Y-54445819D02*
X82272047Y-54493438D01*
X82272047Y-54493438D02*
X82319666Y-54541057D01*
X82319666Y-54541057D02*
X82367285Y-54636295D01*
X82367285Y-54636295D02*
X82367285Y-54731533D01*
X82367285Y-54731533D02*
X82319666Y-54874390D01*
X82319666Y-54874390D02*
X81748238Y-55445819D01*
X81748238Y-55445819D02*
X82367285Y-55445819D01*
D12*
%TO.C,C3*%
X64631000Y-42448000D02*
X65631000Y-42448000D01*
X65131000Y-41948000D02*
X65131000Y-42948000D01*
X65871000Y-41662437D02*
X65871000Y-43448000D01*
X65871000Y-41662437D02*
X66935437Y-40598000D01*
X65871000Y-48253563D02*
X65871000Y-46468000D01*
X65871000Y-48253563D02*
X66935437Y-49318000D01*
X66935437Y-40598000D02*
X74591000Y-40598000D01*
X66935437Y-49318000D02*
X74591000Y-49318000D01*
X74591000Y-40598000D02*
X74591000Y-43448000D01*
X74591000Y-49318000D02*
X74591000Y-46468000D01*
%TO.C,C4*%
X55217637Y-53854437D02*
X55217637Y-61510000D01*
X55217637Y-61510000D02*
X58067637Y-61510000D01*
X56282074Y-52790000D02*
X55217637Y-53854437D01*
X56282074Y-52790000D02*
X58067637Y-52790000D01*
X62087637Y-51550000D02*
X62087637Y-52550000D01*
X62587637Y-52050000D02*
X61587637Y-52050000D01*
X62873200Y-52790000D02*
X61087637Y-52790000D01*
X62873200Y-52790000D02*
X63937637Y-53854437D01*
X63937637Y-53854437D02*
X63937637Y-61510000D01*
X63937637Y-61510000D02*
X61087637Y-61510000D01*
%TO.C,C1*%
X55226037Y-40090000D02*
X58076037Y-40090000D01*
X55226037Y-47745563D02*
X55226037Y-40090000D01*
X56290474Y-48810000D02*
X55226037Y-47745563D01*
X56290474Y-48810000D02*
X58076037Y-48810000D01*
X56576037Y-49550000D02*
X57576037Y-49550000D01*
X57076037Y-50050000D02*
X57076037Y-49050000D01*
X62881600Y-48810000D02*
X61096037Y-48810000D01*
X62881600Y-48810000D02*
X63946037Y-47745563D01*
X63946037Y-40090000D02*
X61096037Y-40090000D01*
X63946037Y-47745563D02*
X63946037Y-40090000D01*
%TO.C,RV1*%
X77843000Y-43113000D02*
X77843000Y-43363000D01*
X77843000Y-48823000D02*
X77843000Y-45283000D01*
X77943000Y-42913000D02*
X77943000Y-43113000D01*
X77943000Y-42913000D02*
X79363000Y-42913000D01*
X77943000Y-43113000D02*
X77843000Y-43113000D01*
X79363000Y-43113000D02*
X79363000Y-42913000D01*
X79363000Y-43113000D02*
X82943000Y-43113000D01*
X80643000Y-50133000D02*
X79153000Y-50133000D01*
X82943000Y-42913000D02*
X84363000Y-42913000D01*
X82943000Y-43113000D02*
X82943000Y-42913000D01*
X83153000Y-50133000D02*
X81663000Y-50133000D01*
X84363000Y-42913000D02*
X84363000Y-43113000D01*
X84363000Y-43113000D02*
X84463000Y-43113000D01*
X84463000Y-43113000D02*
X84463000Y-43803000D01*
X84463000Y-44843000D02*
X84463000Y-48823000D01*
X79153000Y-50133000D02*
G75*
G02*
X77843000Y-48823000I0J1310000D01*
G01*
X84463000Y-48823000D02*
G75*
G02*
X83153000Y-50133000I-1310000J0D01*
G01*
%TO.C,L1*%
X64566000Y-50088000D02*
X67566000Y-50088000D01*
X64566000Y-62688000D02*
X64566000Y-50088000D01*
X67566000Y-62688000D02*
X64566000Y-62688000D01*
X74166000Y-50088000D02*
X77166000Y-50088000D01*
X77166000Y-50088000D02*
X77166000Y-62688000D01*
X77166000Y-62688000D02*
X74166000Y-62688000D01*
%TO.C,SW1*%
D10*
X41633000Y-62643000D02*
X54633000Y-62643000D01*
X54633000Y-43843000D01*
X41633000Y-43843000D01*
X41633000Y-62643000D01*
D12*
%TO.C,RV2*%
X77843000Y-51575000D02*
X77843000Y-51825000D01*
X77843000Y-57285000D02*
X77843000Y-53745000D01*
X77943000Y-51375000D02*
X77943000Y-51575000D01*
X77943000Y-51375000D02*
X79363000Y-51375000D01*
X77943000Y-51575000D02*
X77843000Y-51575000D01*
X79363000Y-51575000D02*
X79363000Y-51375000D01*
X79363000Y-51575000D02*
X82943000Y-51575000D01*
X80643000Y-58595000D02*
X79153000Y-58595000D01*
X82943000Y-51375000D02*
X84363000Y-51375000D01*
X82943000Y-51575000D02*
X82943000Y-51375000D01*
X83153000Y-58595000D02*
X81663000Y-58595000D01*
X84363000Y-51375000D02*
X84363000Y-51575000D01*
X84363000Y-51575000D02*
X84463000Y-51575000D01*
X84463000Y-51575000D02*
X84463000Y-52265000D01*
X84463000Y-53305000D02*
X84463000Y-57285000D01*
X79153000Y-58595000D02*
G75*
G02*
X77843000Y-57285000I0J1310000D01*
G01*
X84463000Y-57285000D02*
G75*
G02*
X83153000Y-58595000I-1310000J0D01*
G01*
%TD*%
M02*
